<svg xmlns="http://www.w3.org/2000/svg" width="289.431" height="110.908" viewBox="0 0 289.431 110.908">
  <g id="Group_661" data-name="Group 661" transform="translate(-640.044 -383.536)">
    <g id="Group_660" data-name="Group 660" transform="translate(640.044 383.536)">
      <g id="Group_659" data-name="Group 659">
        <path id="Path_1327" data-name="Path 1327" d="M746.1,433.316v-5.75H727.031v-9.289h17.133v-5.75H727.031v-7.566h18.413v-5.773h-25.3v34.128Zm-57.5,0V406.451l6.751,26.865h6.636l6.774-26.865v26.865h6.4V399.188H704.819l-6.122,23.28-6.193-23.28H682.191v34.128Z" transform="translate(-585.448 -363.261)" fill="#00306c"/>
        <path id="Path_1328" data-name="Path 1328" d="M718.669,404.961h5.378q4.19,0,5.027.117a4.212,4.212,0,0,1,2.6,1.338,4.092,4.092,0,0,1,.921,2.782,4.452,4.452,0,0,1-.7,2.559,3.716,3.716,0,0,1-1.933,1.444,26.278,26.278,0,0,1-6.193.42h-5.1Zm0,28.355V419.068h1.4a11.421,11.421,0,0,1,3.471.383,5.309,5.309,0,0,1,2.07,1.421,47.9,47.9,0,0,1,3.631,5.015l4.983,7.428h8.24l-4.166-6.659a39.086,39.086,0,0,0-3.923-5.541,16.126,16.126,0,0,0-3.691-2.862,10.838,10.838,0,0,0,6.751-3.154,9.11,9.11,0,0,0,2.259-6.344,9.829,9.829,0,0,0-1.49-5.378,7.842,7.842,0,0,0-3.969-3.271,24.841,24.841,0,0,0-7.951-.918h-14.5v34.128Z" transform="translate(-547.122 -363.261)" fill="#03306c"/>
        <path id="Path_1329" data-name="Path 1329" d="M799.371,404.961a31.14,31.14,0,0,1,5.656.326,6.566,6.566,0,0,1,3.191,1.607,7.822,7.822,0,0,1,1.956,3.305,20.376,20.376,0,0,1,.7,6.076,22.251,22.251,0,0,1-.7,6.25,7.235,7.235,0,0,1-1.8,3.294,6.369,6.369,0,0,1-2.782,1.421,18.732,18.732,0,0,1-4.168.326h-5.144v-22.6Zm-9.987,28.355H802.35a20.812,20.812,0,0,0,6.1-.723,12.12,12.12,0,0,0,4.843-2.722,15.071,15.071,0,0,0,3.654-6.03,22.448,22.448,0,0,0,1.047-7.263,25.223,25.223,0,0,0-1.116-8.066,14.934,14.934,0,0,0-3.259-5.53,11.406,11.406,0,0,0-5.146-3.142,24.52,24.52,0,0,0-6.494-.652H789.384Zm-3.037,0v-5.75H769.212v-28.1h-6.891v33.85Zm-48-13.5,4.611-12.664,4.7,12.664Zm8.335-20.624H739.4L726.1,433.316h7.308l2.817-7.752h13.644l2.979,7.752h7.5Z" transform="translate(-528.563 -363.261)" fill="#00306c"/>
        <path id="Path_1330" data-name="Path 1330" d="M843.078,420.1h5.04c5.378,0,9.8.946,9.8,13.393,0,12.087-3.865,13.4-9.691,13.4h-5.153Zm-4.2,29.631h9.636c8.8,0,13.612-3.744,13.612-16.238,0-12.673-5.208-16.235-13-16.235H838.875Zm-27.393-32.473h-4.2v32.473h21.68v-2.842H811.482Zm-18.152,0H772.38v32.473h21.342v-2.842H776.581v-12.4h12.044v-2.842H776.581V420.1h16.75Zm-38.374,0H739.832V420.1h5.433v26.789h-5.433v2.842h15.124v-2.842h-5.488V420.1h5.488Zm-48.568,0h-4.2v32.473h4.2V434.3h14v15.425h4.2V417.255h-4.2v14.206h-14ZM690.7,420.682a18.9,18.9,0,0,0-11.091-4.06c-6.051,0-10.869,2.934-10.869,8.029,0,4.058,3.473,6.269,7.451,8.165l3.641,1.758c7.116,3.427,7.341,4.329,7.341,6.946,0,3.473-3.475,6-7.676,6a11.345,11.345,0,0,1-8.963-4.51l-3.25,2.075a16.21,16.21,0,0,0,12.214,5.277c7.058,0,11.876-3.473,11.876-9.292,0-3.787-2.018-5.5-9.411-9.154l-3.193-1.579c-5.436-2.66-5.828-4.2-5.828-5.908,0-2.977,2.915-4.963,6.5-4.963,3.473,0,6.273,1.9,8.738,3.654Z" transform="translate(-604.758 -340.677)" fill="#4bab50"/>
        <path id="Path_1331" data-name="Path 1331" d="M697.194,428.128H667.156V412.871l10.7-5.719,9.86-4.133-8.081,4.928-5.346,3.971v8.106h22.909Z" transform="translate(-604.924 -358.298)" fill="#00306c"/>
        <path id="Path_1332" data-name="Path 1332" d="M667.25,421.662l10.46-5.987,16.194-4.126-19.448.162v-9.87h22.857v-6.956l-30.3.08Z" transform="translate(-605.103 -368.836)" fill="#00306c"/>
        <path id="Path_1333" data-name="Path 1333" d="M722.627,397.653a193.329,193.329,0,0,1-23.957-7.641l-.124-6.475s-16.01,6.689-30.26,11.038a147.652,147.652,0,0,1-28.242,5.413s1.008,22.394,4.286,35.661,7.313,22.816,20.174,37.463,33.664,21.333,33.664,21.333V393.195s10.338,3.395,21.687,6.686S748.98,407.1,748.98,407.1l1.26,13.586,1.639-16.453S736.245,401.05,722.627,397.653Zm-24.462-4.467s-16.483,4.6-24.677,6.863c-8.385,2.314-26,6.2-26,6.2l-1.129,14.989L645.229,403.8s12.576-2.073,23.879-5.087,29.059-8.936,29.059-8.936Z" transform="translate(-640.044 -383.536)" fill="#4bab50"/>
        <path id="Path_1334" data-name="Path 1334" d="M653.233,448.88s-17.4,8.4-9.93-2.408,55.376-34.722,55.376-34.722c1.88-1.329,9.057-4.94,18.478-6.872S731.513,402,739.31,401.01c8.075-1.021-7.972,1.288-21.882,6.707a94.292,94.292,0,0,0-17.043,8.188Z" transform="translate(-638.235 -361.206)" fill="#00306c"/>
      </g>
    </g>
  </g>
</svg>
