<svg xmlns="http://www.w3.org/2000/svg" width="149.218" height="57.178" viewBox="0 0 149.218 57.178">
  <g id="Group_649" data-name="Group 649" transform="translate(-70.983 -55.765)">
    <g id="Group_641" data-name="Group 641" transform="translate(70.983 55.765)">
      <g id="Group_640" data-name="Group 640">
        <path id="Path_511" data-name="Path 511" d="M127.8,74.916l-.65-7s-9.165-2.025-15.015-3.72-11.181-3.448-11.181-3.448v52.2s-10.726-3.448-17.357-11-8.709-12.476-10.4-19.315-2.21-18.385-2.21-18.385a76.19,76.19,0,0,0,14.561-2.79c7.346-2.243,15.6-5.691,15.6-5.691l.064,3.338a99.761,99.761,0,0,0,12.352,3.94c7.021,1.751,15.081,3.392,15.081,3.392" transform="translate(-70.983 -55.765)" fill="#fff"/>
        <path id="Path_512" data-name="Path 512" d="M148.026,89.734V86.77H138.2V81.981h8.834V79.017H138.2v-3.9h9.494V72.14H134.644V89.734Zm-29.646,0V75.884l3.48,13.85h3.42l3.493-13.85v13.85h3.3V72.14h-5.329l-3.157,12-3.193-12h-5.316V89.734Z" transform="translate(-65.202 -53.618)" fill="#fff"/>
        <path id="Path_513" data-name="Path 513" d="M149.586,75.116h2.772q2.162,0,2.593.06a2.172,2.172,0,0,1,1.338.69,2.108,2.108,0,0,1,.475,1.434,2.291,2.291,0,0,1-.361,1.32,1.908,1.908,0,0,1-1,.744,13.542,13.542,0,0,1-3.193.216h-2.629Zm0,14.618V82.389h.721a5.888,5.888,0,0,1,1.788.2,2.732,2.732,0,0,1,1.068.733,24.857,24.857,0,0,1,1.873,2.586l2.568,3.829h4.25L159.7,86.3a20.114,20.114,0,0,0-2.022-2.856,8.259,8.259,0,0,0-1.9-1.476,5.59,5.59,0,0,0,3.482-1.627,4.7,4.7,0,0,0,1.164-3.27,5.073,5.073,0,0,0-.768-2.772,4.041,4.041,0,0,0-2.046-1.686,12.788,12.788,0,0,0-4.1-.474h-7.478V89.734Z" transform="translate(-61.144 -53.618)" fill="#fff"/>
        <path id="Path_514" data-name="Path 514" d="M198.795,75.116a16.1,16.1,0,0,1,2.917.169,3.373,3.373,0,0,1,1.643.828,4.028,4.028,0,0,1,1.009,1.7,10.526,10.526,0,0,1,.36,3.133,11.489,11.489,0,0,1-.36,3.222,3.719,3.719,0,0,1-.931,1.7A3.274,3.274,0,0,1,202,86.6a9.688,9.688,0,0,1-2.148.167H197.2V75.116Zm-5.149,14.618h6.686a10.725,10.725,0,0,0,3.144-.372,6.258,6.258,0,0,0,2.5-1.4,7.783,7.783,0,0,0,1.884-3.109,11.569,11.569,0,0,0,.54-3.744,13.008,13.008,0,0,0-.576-4.159,7.689,7.689,0,0,0-1.681-2.85,5.885,5.885,0,0,0-2.652-1.62,12.682,12.682,0,0,0-3.348-.336h-6.494Zm-1.565,0V86.77h-8.833V72.284H179.7V89.734Zm-24.745-6.961,2.376-6.53,2.424,6.53Zm4.3-10.633h-3.758l-6.852,17.594h3.768l1.452-4h7.033l1.536,4h3.865Z" transform="translate(-59.179 -53.618)" fill="#fff"/>
        <path id="Path_515" data-name="Path 515" d="M190.114,92.171h2.6c2.772,0,5.054.489,5.054,6.906,0,6.232-1.993,6.907-5,6.907h-2.657Zm-2.166,15.278h4.968c4.533,0,7.017-1.93,7.017-8.371,0-6.534-2.685-8.371-6.7-8.371h-5.284ZM173.825,90.706h-2.167v16.743h11.178v-1.465h-9.01Zm-9.358,0h-10.8v16.743h11v-1.465h-8.837v-6.4h6.21V98.124h-6.21V92.171h8.636Zm-19.784,0h-7.8v1.465h2.8v13.813h-2.8v1.465h7.8v-1.465h-2.831V92.171h2.831Zm-25.04,0h-2.166v16.743h2.166V99.5h7.22v7.953h2.166V90.706h-2.166v7.325h-7.22Zm-8.087,1.768a9.744,9.744,0,0,0-5.719-2.094c-3.118,0-5.6,1.512-5.6,4.14,0,2.093,1.791,3.232,3.841,4.209l1.878.906c3.667,1.768,3.784,2.233,3.784,3.581,0,1.791-1.792,3.092-3.958,3.092a5.852,5.852,0,0,1-4.621-2.324l-1.675,1.069a8.354,8.354,0,0,0,6.3,2.721c3.64,0,6.124-1.791,6.124-4.79,0-1.953-1.041-2.837-4.852-4.72l-1.647-.814c-2.8-1.372-3-2.163-3-3.046,0-1.535,1.5-2.557,3.35-2.557a7.851,7.851,0,0,1,4.505,1.883Z" transform="translate(-67.247 -51.227)" fill="#fff"/>
        <path id="Path_516" data-name="Path 516" d="M114.835,89.093H99.349V81.227l5.514-2.949,5.084-2.131-4.166,2.54-2.756,2.048v4.179h11.811Z" transform="translate(-67.264 -53.093)" fill="#fff"/>
        <path id="Path_517" data-name="Path 517" d="M99.324,81.443l5.393-3.087,8.349-2.127-10.026.083V71.223h11.784V67.637L99.2,67.678Z" transform="translate(-67.283 -54.209)" fill="#fff"/>
        <path id="Path_518" data-name="Path 518" d="M102.833,81.6a48.663,48.663,0,0,1,8.786-4.221c7.172-2.794,15.444-3.984,11.282-3.458-4.02.509-6.567,1-11.421,1.994a30.126,30.126,0,0,0-9.526,3.543s-24.7,12.329-28.55,17.9S78.524,98.6,78.524,98.6" transform="translate(-70.791 -53.401)" fill="#fff"/>
        <path id="Path_519" data-name="Path 519" d="M100.639,58.611s-9.154,3.053-14.981,4.607-12.311,2.623-12.311,2.623l.583,8.99.583-7.728s9.08-2.007,13.4-3.2c4.225-1.166,12.723-3.538,12.723-3.538Z" transform="translate(-70.673 -55.392)" fill="#fff"/>
      </g>
    </g>
  </g>
</svg>
