<svg xmlns="http://www.w3.org/2000/svg" width="79" height="63" viewBox="0 0 79 63">
  <g id="Group_654" data-name="Group 654" transform="translate(-620 -6512)">
    <circle id="Ellipse_61" data-name="Ellipse 61" cx="29.5" cy="29.5" r="29.5" transform="translate(640 6512)" fill="#e0eeff"/>
    <g id="Group_624" data-name="Group 624" transform="translate(604.5 6508.973)">
      <line id="Line_132" data-name="Line 132" x2="49" transform="translate(16.5 65.028)" fill="none" stroke="#00306c" stroke-linecap="round" stroke-linejoin="round" stroke-width="2"/>
      <path id="Path_487" data-name="Path 487" d="M22.192,28.677h0A2.693,2.693,0,0,1,19.5,25.986V21.5h5.383v4.486A2.693,2.693,0,0,1,22.192,28.677Z" transform="translate(2.383 4.051)" fill="#96cdff" stroke="#00306c" stroke-linecap="round" stroke-linejoin="round" stroke-width="2"/>
      <path id="Path_488" data-name="Path 488" d="M25.192,28.677h0A2.693,2.693,0,0,1,22.5,25.986V21.5h5.383v4.486A2.693,2.693,0,0,1,25.192,28.677Z" transform="translate(4.766 4.051)" fill="#96cdff" stroke="#00306c" stroke-linecap="round" stroke-linejoin="round" stroke-width="2"/>
      <path id="Path_489" data-name="Path 489" d="M28.192,28.677h0A2.693,2.693,0,0,1,25.5,25.986V21.5h5.383v4.486A2.693,2.693,0,0,1,28.192,28.677Z" transform="translate(7.149 4.051)" fill="#96cdff" stroke="#00306c" stroke-linecap="round" stroke-linejoin="round" stroke-width="2"/>
      <path id="Path_490" data-name="Path 490" d="M31.192,28.677h0A2.693,2.693,0,0,1,28.5,25.986V21.5h5.383v4.486A2.693,2.693,0,0,1,31.192,28.677Z" transform="translate(9.532 4.051)" fill="#96cdff" stroke="#00306c" stroke-linecap="round" stroke-linejoin="round" stroke-width="2"/>
      <path id="Path_491" data-name="Path 491" d="M34.192,28.677h0A2.693,2.693,0,0,1,31.5,25.986V21.5h5.383v4.486A2.693,2.693,0,0,1,34.192,28.677Z" transform="translate(11.915 4.051)" fill="#96cdff" stroke="#00306c" stroke-linecap="round" stroke-linejoin="round" stroke-width="2"/>
      <path id="Path_492" data-name="Path 492" d="M37.192,28.677h0A2.693,2.693,0,0,1,34.5,25.986V21.5h5.383v4.486A2.693,2.693,0,0,1,37.192,28.677Z" transform="translate(14.298 4.051)" fill="#96cdff" stroke="#00306c" stroke-linecap="round" stroke-linejoin="round" stroke-width="2"/>
      <path id="Path_493" data-name="Path 493" d="M40.192,28.677h0A2.693,2.693,0,0,1,37.5,25.986V21.5h5.383v4.486A2.693,2.693,0,0,1,40.192,28.677Z" transform="translate(16.681 4.051)" fill="#96cdff" stroke="#00306c" stroke-linecap="round" stroke-linejoin="round" stroke-width="2"/>
      <path id="Path_494" data-name="Path 494" d="M59.77,25.414V57.873H18.5V25.406" transform="translate(1.589 7.154)" fill="none" stroke="#00306c" stroke-linecap="round" stroke-linejoin="round" stroke-width="2"/>
      <path id="Path_495" data-name="Path 495" d="M19.192,28.677h0A2.693,2.693,0,0,1,16.5,25.986V21.5h5.383v4.486A2.693,2.693,0,0,1,19.192,28.677Z" transform="translate(0 4.051)" fill="#96cdff" stroke="#00306c" stroke-linecap="round" stroke-linejoin="round" stroke-width="2"/>
      <path id="Path_496" data-name="Path 496" d="M43.192,28.677h0A2.693,2.693,0,0,1,40.5,25.986V21.5h5.383v4.486A2.693,2.693,0,0,1,43.192,28.677Z" transform="translate(19.064 4.051)" fill="#96cdff" stroke="#00306c" stroke-linecap="round" stroke-linejoin="round" stroke-width="2"/>
      <path id="Path_497" data-name="Path 497" d="M16.5,25.472,23.677,16.5H57.77l7.177,8.972Z" transform="translate(0 0.08)" fill="#96cdff" stroke="#00306c" stroke-linecap="round" stroke-linejoin="round" stroke-width="2"/>
      <line id="Line_133" data-name="Line 133" x1="6.28" y2="8.972" transform="translate(21.883 16.58)" fill="none" stroke="#00306c" stroke-linecap="round" stroke-linejoin="round" stroke-width="2"/>
      <line id="Line_134" data-name="Line 134" y1="9.5" x2="5.5" transform="translate(27.5 16.527)" fill="none" stroke="#00306c" stroke-linecap="round" stroke-linejoin="round" stroke-width="2"/>
      <line id="Line_135" data-name="Line 135" y1="8.972" x2="4.486" transform="translate(32.649 16.58)" fill="none" stroke="#00306c" stroke-linecap="round" stroke-linejoin="round" stroke-width="2"/>
      <line id="Line_136" data-name="Line 136" y1="9.5" x2="1.5" transform="translate(38.5 16.527)" fill="none" stroke="#00306c" stroke-linecap="round" stroke-linejoin="round" stroke-width="2"/>
      <line id="Line_137" data-name="Line 137" x2="1.5" y2="9.5" transform="translate(42 16.527)" fill="none" stroke="#00306c" stroke-linecap="round" stroke-linejoin="round" stroke-width="2"/>
      <line id="Line_138" data-name="Line 138" x1="4.5" y1="8.5" transform="translate(49.5 17.028)" fill="none" stroke="#00306c" stroke-linecap="round" stroke-linejoin="round" stroke-width="2"/>
      <line id="Line_139" data-name="Line 139" x1="6.28" y1="8.972" transform="translate(53.284 16.58)" fill="none" stroke="#00306c" stroke-linecap="round" stroke-linejoin="round" stroke-width="2"/>
      <line id="Line_140" data-name="Line 140" x1="3.798" y1="8.024" transform="translate(45 17.527)" fill="none" stroke="#00306c" stroke-linecap="round" stroke-linejoin="round" stroke-width="2"/>
      <rect id="Rectangle_419" data-name="Rectangle 419" width="10.766" height="20.635" transform="translate(25.472 44.392)" stroke-width="2" stroke="#00306c" stroke-linecap="round" stroke-linejoin="round" fill="#fff"/>
      <rect id="Rectangle_420" data-name="Rectangle 420" width="18" height="20" transform="translate(39.5 38.028)" stroke-width="2" stroke="#00306c" stroke-linecap="round" stroke-linejoin="round" fill="#fff"/>
      <line id="Line_141" data-name="Line 141" x2="18" transform="translate(39.5 61.028)" fill="none" stroke="#00306c" stroke-linecap="round" stroke-linejoin="round" stroke-width="2"/>
    </g>
  </g>
</svg>
