<svg xmlns="http://www.w3.org/2000/svg" width="80" height="61" viewBox="0 0 80 61">
  <g id="Group_648" data-name="Group 648" transform="translate(-1259 -6121)">
    <circle id="Ellipse_54" data-name="Ellipse 54" cx="29.5" cy="29.5" r="29.5" transform="translate(1280 6121)" fill="#e0eeff"/>
    <g id="table_reservations" data-name="table reservations" transform="translate(1192 5917.2)">
      <g id="Group_607" data-name="Group 607" transform="translate(68 222)">
        <path id="Path_463" data-name="Path 463" d="M68,253H81.376a2.508,2.508,0,0,1,2.508,2.508v13.376" transform="translate(-68 -227.084)" fill="none" stroke="#00306c" stroke-linecap="square" stroke-linejoin="round" stroke-width="2"/>
        <line id="Line_100" data-name="Line 100" y2="42" transform="translate(0 -0.2)" fill="none" stroke="#00306c" stroke-linecap="square" stroke-linejoin="round" stroke-width="2"/>
        <line id="Line_101" data-name="Line 101" x2="11" transform="translate(5 32.8)" fill="none" stroke="#00306c" stroke-linecap="square" stroke-linejoin="round" stroke-width="2"/>
      </g>
      <g id="Group_608" data-name="Group 608" transform="translate(103.948 222)">
        <path id="Path_464" data-name="Path 464" d="M126.884,253H113.508A2.508,2.508,0,0,0,111,255.508v13.376" transform="translate(-111 -227.084)" fill="none" stroke="#00306c" stroke-linecap="square" stroke-linejoin="round" stroke-width="2"/>
        <line id="Line_102" data-name="Line 102" y2="42" transform="translate(16.052 -0.2)" fill="none" stroke="#00306c" stroke-linecap="square" stroke-linejoin="round" stroke-width="2"/>
        <line id="Line_103" data-name="Line 103" x1="11" transform="translate(0.052 32.8)" fill="none" stroke="#00306c" stroke-linecap="square" stroke-linejoin="round" stroke-width="2"/>
      </g>
      <g id="Group_611" data-name="Group 611" transform="translate(75.524 222.836)">
        <g id="Group_609" data-name="Group 609" transform="translate(0 8.36)">
          <path id="Path_465" data-name="Path 465" d="M77,234.672V244.7l4.488-1.683a5.855,5.855,0,0,1,4.36.1l1.388.594a5.848,5.848,0,0,0,4.61,0l1.388-.594a5.855,5.855,0,0,1,4.36-.1l2.1.787a5.851,5.851,0,0,0,4.672-.245l.451-.226a5.851,5.851,0,0,1,4.672-.245l4.3,1.612V234.672A1.672,1.672,0,0,0,112.112,233H78.672A1.672,1.672,0,0,0,77,234.672Z" transform="translate(-77 -233)" fill="#96cdff" stroke="#00306c" stroke-linecap="square" stroke-linejoin="round" stroke-width="2"/>
          <line id="Line_104" data-name="Line 104" y2="16" transform="translate(18.476 16.604)" fill="none" stroke="#00306c" stroke-linecap="square" stroke-linejoin="round" stroke-width="2"/>
          <line id="Line_105" data-name="Line 105" x2="10" transform="translate(13.476 32.604)" fill="none" stroke="#00306c" stroke-linecap="round" stroke-linejoin="round" stroke-width="2"/>
        </g>
        <g id="Group_610" data-name="Group 610" transform="translate(9.196)">
          <path id="Path_466" data-name="Path 466" d="M88,228.016,90.508,223h13.376l-2.508,5.016" transform="translate(-88 -223)" fill="#fff" stroke="#00306c" stroke-linecap="round" stroke-linejoin="round" stroke-width="2"/>
          <line id="Line_106" data-name="Line 106" x2="2" y2="5" transform="translate(16.28 -0.036)" fill="none" stroke="#00306c" stroke-linecap="round" stroke-linejoin="round" stroke-width="2"/>
        </g>
      </g>
    </g>
  </g>
</svg>
