<svg xmlns="http://www.w3.org/2000/svg" width="80" height="61.567" viewBox="0 0 80 61.567">
  <g id="Group_651" data-name="Group 651" transform="translate(-832 -6276)">
    <circle id="Ellipse_56" data-name="Ellipse 56" cx="29.5" cy="29.5" r="29.5" transform="translate(853 6276)" fill="#e0eeff"/>
    <g id="Group_616" data-name="Group 616" transform="translate(252.77 2947.953)">
      <g id="Group_615" data-name="Group 615" transform="translate(582.381 3337.433)">
        <g id="Group_613" data-name="Group 613" transform="translate(0 15.944)">
          <rect id="Rectangle_399" data-name="Rectangle 399" width="5.107" height="25.66" transform="translate(0 6.43)" fill="none" stroke="#00306c" stroke-linecap="round" stroke-miterlimit="10" stroke-width="2"/>
          <path id="Path_480" data-name="Path 480" d="M622.669,3446.335h-7.474v-32.091l7.474,2.492Z" transform="translate(-610.088 -3414.245)" fill="none" stroke="#00306c" stroke-linecap="round" stroke-miterlimit="10" stroke-width="2"/>
        </g>
        <g id="Group_614" data-name="Group 614" transform="translate(50.324 15.944)">
          <rect id="Rectangle_400" data-name="Rectangle 400" width="5.107" height="25.66" transform="translate(12.581 32.09) rotate(180)" fill="none" stroke="#00306c" stroke-linecap="round" stroke-miterlimit="10" stroke-width="2"/>
          <path id="Path_481" data-name="Path 481" d="M833.029,3446.335H840.5v-32.091l-7.474,2.492Z" transform="translate(-833.029 -3414.245)" fill="none" stroke="#00306c" stroke-linecap="round" stroke-miterlimit="10" stroke-width="2"/>
        </g>
        <path id="Path_482" data-name="Path 482" d="M688.944,3385.468H651.2v-42.554s2.99-5.481,18.436-5.481c16.878,0,19.307,5.481,19.307,5.481Z" transform="translate(-638.62 -3337.433)" fill="#96cdff" stroke="#00306c" stroke-linecap="round" stroke-miterlimit="10" stroke-width="2"/>
        <path id="Path_483" data-name="Path 483" d="M651.2,3413.254s5.543-4.11,18.5-4.11c14.076,0,19.245,4.11,19.245,4.11" transform="translate(-638.62 -3394.259)" fill="none" stroke="#00306c" stroke-linecap="round" stroke-miterlimit="10" stroke-width="2"/>
        <path id="Path_484" data-name="Path 484" d="M651.2,3453s5.543-3.612,18.5-3.612c14.076,0,19.245,3.612,19.245,3.612" transform="translate(-638.62 -3426.145)" fill="none" stroke="#00306c" stroke-linecap="round" stroke-miterlimit="10" stroke-width="2"/>
        <path id="Path_485" data-name="Path 485" d="M651.2,3490.342s5.543-3.114,18.5-3.114c14.076,0,19.245,3.114,19.245,3.114" transform="translate(-638.62 -3456.134)" fill="none" stroke="#00306c" stroke-linecap="round" stroke-miterlimit="10" stroke-width="2"/>
        <path id="Path_486" data-name="Path 486" d="M651.2,3528.837s5.543-2.117,18.5-2.117c14.076,0,19.245,2.117,19.245,2.117" transform="translate(-638.62 -3487.428)" fill="none" stroke="#00306c" stroke-linecap="round" stroke-miterlimit="10" stroke-width="2"/>
        <line id="Line_118" data-name="Line 118" y1="8.566" transform="translate(26.034 39.468)" fill="none" stroke="#00306c" stroke-linecap="round" stroke-miterlimit="10" stroke-width="2"/>
        <line id="Line_119" data-name="Line 119" y1="8.614" transform="translate(37.027 39.445)" fill="none" stroke="#00306c" stroke-linecap="round" stroke-miterlimit="10" stroke-width="2"/>
        <line id="Line_120" data-name="Line 120" y2="8.743" transform="translate(31.451 39.292)" fill="none" stroke="#00306c" stroke-linecap="round" stroke-miterlimit="10" stroke-width="2"/>
        <line id="Line_121" data-name="Line 121" y2="30.554" transform="translate(16.474 17.481)" fill="none" stroke="#00306c" stroke-linecap="round" stroke-miterlimit="10" stroke-width="2"/>
        <line id="Line_122" data-name="Line 122" y2="32.257" transform="translate(22.256 15.778)" fill="none" stroke="#00306c" stroke-linecap="round" stroke-miterlimit="10" stroke-width="2"/>
        <line id="Line_123" data-name="Line 123" y2="30.554" transform="translate(46.504 17.481)" fill="none" stroke="#00306c" stroke-linecap="round" stroke-miterlimit="10" stroke-width="2"/>
        <line id="Line_124" data-name="Line 124" y2="31.592" transform="translate(41.024 15.944)" fill="none" stroke="#00306c" stroke-linecap="round" stroke-miterlimit="10" stroke-width="2"/>
        <line id="Line_125" data-name="Line 125" y2="24.405" transform="translate(31.451 14.887)" fill="none" stroke="#00306c" stroke-linecap="round" stroke-miterlimit="10" stroke-width="2"/>
      </g>
      <rect id="Rectangle_401" data-name="Rectangle 401" width="67.207" height="3.065" transform="translate(580.23 3385.549)" fill="#fff" stroke="#00306c" stroke-linejoin="round" stroke-width="2"/>
    </g>
  </g>
</svg>
