<svg xmlns="http://www.w3.org/2000/svg" width="79" height="67.544" viewBox="0 0 79 67.544">
  <g id="Group_641" data-name="Group 641" transform="translate(-833 -5964)">
    <circle id="Ellipse_46" data-name="Ellipse 46" cx="29.5" cy="29.5" r="29.5" transform="translate(853 5964)" fill="#e0eeff"/>
    <g id="Group_497" data-name="Group 497" transform="translate(642.983 5209.169)">
      <g id="Group_468" data-name="Group 468">
        <rect id="Rectangle_365" data-name="Rectangle 365" width="23.461" height="51.509" transform="translate(212.616 764.83)" fill="#96cdff"/>
        <path id="Path_290" data-name="Path 290" d="M236.077,817.339H212.616a1,1,0,0,1-1-1V764.831a1,1,0,0,1,1-1h23.461a1,1,0,0,1,1,1v51.508A1,1,0,0,1,236.077,817.339Zm-22.461-2h21.461V765.831H213.616Z" fill="#002d82"/>
      </g>
      <g id="Group_469" data-name="Group 469">
        <path id="Path_291" data-name="Path 291" d="M222.351,781h-3.916a1,1,0,1,1,0-2h3.916a1,1,0,0,1,0,2Z" fill="#002d82"/>
      </g>
      <g id="Group_470" data-name="Group 470">
        <path id="Path_292" data-name="Path 292" d="M222.351,785.391h-3.916a1,1,0,1,1,0-2h3.916a1,1,0,0,1,0,2Z" fill="#002d82"/>
      </g>
      <g id="Group_471" data-name="Group 471">
        <path id="Path_293" data-name="Path 293" d="M222.351,789.778h-3.916a1,1,0,1,1,0-2h3.916a1,1,0,0,1,0,2Z" fill="#002d82"/>
      </g>
      <g id="Group_472" data-name="Group 472">
        <path id="Path_294" data-name="Path 294" d="M222.351,794.165h-3.916a1,1,0,1,1,0-2h3.916a1,1,0,0,1,0,2Z" fill="#002d82"/>
      </g>
      <g id="Group_473" data-name="Group 473">
        <path id="Path_295" data-name="Path 295" d="M222.351,798.552h-3.916a1,1,0,1,1,0-2h3.916a1,1,0,0,1,0,2Z" fill="#002d82"/>
      </g>
      <g id="Group_474" data-name="Group 474">
        <path id="Path_296" data-name="Path 296" d="M222.351,802.939h-3.916a1,1,0,1,1,0-2h3.916a1,1,0,0,1,0,2Z" fill="#002d82"/>
      </g>
      <g id="Group_475" data-name="Group 475">
        <rect id="Rectangle_366" data-name="Rectangle 366" width="5.913" height="9.028" transform="translate(221.39 807.311)" fill="#fff"/>
        <path id="Path_297" data-name="Path 297" d="M227.3,817.339H221.39a1,1,0,0,1-1-1v-9.028a1,1,0,0,1,1-1H227.3a1,1,0,0,1,1,1v9.028A1,1,0,0,1,227.3,817.339Zm-4.913-2H226.3v-7.028H222.39Z" fill="#002d82"/>
      </g>
      <g id="Group_476" data-name="Group 476">
        <rect id="Rectangle_367" data-name="Rectangle 367" width="15.784" height="28.395" transform="translate(196.832 787.945)" fill="#96cdff"/>
        <path id="Path_298" data-name="Path 298" d="M212.616,817.339H196.833a1,1,0,0,1-1-1V787.945a1,1,0,0,1,1-1h15.783a1,1,0,0,1,1,1v28.394A1,1,0,0,1,212.616,817.339Zm-14.783-2h13.783V788.945H197.833Z" fill="#002d82"/>
      </g>
      <g id="Group_477" data-name="Group 477">
        <path id="Path_299" data-name="Path 299" d="M207.831,794.165h-3.916a1,1,0,0,1,0-2h3.916a1,1,0,0,1,0,2Z" fill="#002d82"/>
      </g>
      <g id="Group_478" data-name="Group 478">
        <path id="Path_300" data-name="Path 300" d="M207.831,798.552h-3.916a1,1,0,0,1,0-2h3.916a1,1,0,0,1,0,2Z" fill="#002d82"/>
      </g>
      <g id="Group_479" data-name="Group 479">
        <path id="Path_301" data-name="Path 301" d="M207.831,802.939h-3.916a1,1,0,0,1,0-2h3.916a1,1,0,0,1,0,2Z" fill="#002d82"/>
      </g>
      <g id="Group_480" data-name="Group 480">
        <path id="Path_302" data-name="Path 302" d="M207.831,807.326h-3.916a1,1,0,0,1,0-2h3.916a1,1,0,0,1,0,2Z" fill="#002d82"/>
      </g>
      <g id="Group_481" data-name="Group 481">
        <path id="Path_303" data-name="Path 303" d="M207.831,811.713h-3.916a1,1,0,0,1,0-2h3.916a1,1,0,0,1,0,2Z" fill="#002d82"/>
      </g>
      <g id="Group_482" data-name="Group 482">
        <path id="Path_304" data-name="Path 304" d="M257.674,817.339H191.017a1,1,0,0,1,0-2h66.657a1,1,0,0,1,0,2Z" fill="#002d82"/>
      </g>
      <g id="Group_483" data-name="Group 483">
        <path id="Path_305" data-name="Path 305" d="M251.463,822.375H223.015a1,1,0,0,1,0-2h28.448a1,1,0,1,1,0,2Z" fill="#002d82"/>
      </g>
      <g id="Group_484" data-name="Group 484">
        <path id="Path_306" data-name="Path 306" d="M206.476,822.375h-9.248a1,1,0,1,1,0-2h9.248a1,1,0,0,1,0,2Z" fill="#002d82"/>
      </g>
      <g id="Group_485" data-name="Group 485">
        <path id="Path_307" data-name="Path 307" d="M216.432,822.375h-4.4a1,1,0,0,1,0-2h4.323a1.033,1.033,0,0,1,1.039,1A.968.968,0,0,1,216.432,822.375Z" fill="#002d82"/>
      </g>
      <g id="Group_486" data-name="Group 486">
        <path id="Path_308" data-name="Path 308" d="M222.351,772.23h-3.916a1,1,0,1,1,0-2h3.916a1,1,0,0,1,0,2Z" fill="#002d82"/>
      </g>
      <g id="Group_487" data-name="Group 487">
        <path id="Path_309" data-name="Path 309" d="M222.351,776.617h-3.916a1,1,0,1,1,0-2h3.916a1,1,0,0,1,0,2Z" fill="#002d82"/>
      </g>
      <g id="Group_488" data-name="Group 488">
        <rect id="Rectangle_368" data-name="Rectangle 368" width="15.784" height="28.395" transform="translate(236.077 787.945)" fill="#fff"/>
        <path id="Path_310" data-name="Path 310" d="M251.861,817.339H236.077a1,1,0,0,1-1-1V787.945a1,1,0,0,1,1-1h15.784a1,1,0,0,1,1,1v28.394A1,1,0,0,1,251.861,817.339Zm-14.784-2h13.784V788.945H237.077Z" fill="#002d82"/>
      </g>
      <g id="Group_489" data-name="Group 489">
        <path id="Path_311" data-name="Path 311" d="M244.778,794.165h-3.916a1,1,0,1,1,0-2h3.916a1,1,0,0,1,0,2Z" fill="#002d82"/>
      </g>
      <g id="Group_490" data-name="Group 490">
        <path id="Path_312" data-name="Path 312" d="M244.778,798.552h-3.916a1,1,0,1,1,0-2h3.916a1,1,0,0,1,0,2Z" fill="#002d82"/>
      </g>
      <g id="Group_491" data-name="Group 491">
        <path id="Path_313" data-name="Path 313" d="M244.778,802.939h-3.916a1,1,0,1,1,0-2h3.916a1,1,0,0,1,0,2Z" fill="#002d82"/>
      </g>
      <g id="Group_492" data-name="Group 492">
        <path id="Path_314" data-name="Path 314" d="M244.778,807.326h-3.916a1,1,0,1,1,0-2h3.916a1,1,0,0,1,0,2Z" fill="#002d82"/>
      </g>
      <g id="Group_493" data-name="Group 493">
        <path id="Path_315" data-name="Path 315" d="M244.778,811.713h-3.916a1,1,0,1,1,0-2h3.916a1,1,0,0,1,0,2Z" fill="#002d82"/>
      </g>
      <g id="Group_494" data-name="Group 494">
        <path id="Path_316" data-name="Path 316" d="M254.36,788.945H236.077a1,1,0,1,1,0-2H254.36a1,1,0,0,1,0,2Z" fill="#002d82"/>
      </g>
      <g id="Group_495" data-name="Group 495">
        <path id="Path_317" data-name="Path 317" d="M212.616,788.945H194.333a1,1,0,0,1,0-2h18.283a1,1,0,1,1,0,2Z" fill="#002d82"/>
      </g>
      <g id="Group_496" data-name="Group 496">
        <path id="Path_318" data-name="Path 318" d="M238.577,765.831h-28.46a1,1,0,1,1,0-2h28.46a1,1,0,0,1,0,2Z" fill="#002d82"/>
      </g>
    </g>
  </g>
</svg>
