<svg xmlns="http://www.w3.org/2000/svg" width="76" height="59" viewBox="0 0 76 59">
  <g id="Group_639" data-name="Group 639" transform="translate(-410 -5964)">
    <circle id="Ellipse_44" data-name="Ellipse 44" cx="29.5" cy="29.5" r="29.5" transform="translate(427 5964)" fill="#e0eeff"/>
    <g id="Group_599" data-name="Group 599" transform="translate(522.156 5038.076)">
      <g id="Group_592" data-name="Group 592">
        <path id="Path_417" data-name="Path 417" d="M-56.627,950.188a3.14,3.14,0,0,1-1.586-.4l-4.76-2.578a1.334,1.334,0,0,1-.728-1.058,1.567,1.567,0,0,1,.529-1.257l.992-.859a2.527,2.527,0,0,1,1.536-.539,2.187,2.187,0,0,1,.579.076l3.24.794,1.587-.926-5.95-1.388a1.386,1.386,0,0,1-.86-.86,1.3,1.3,0,0,1,.331-1.19l.595-.6a2.149,2.149,0,0,1,1.652-.727h12.429l5.355-3.438a2.677,2.677,0,0,1,1.484-.453,2.646,2.646,0,0,1,2.152,1.114,2.68,2.68,0,0,1,.463,2.116,2.9,2.9,0,0,1-1.256,1.785l-16.065,9.917A3.207,3.207,0,0,1-56.627,950.188Z" fill="#96cdff"/>
      </g>
      <g id="Group_419" data-name="Group 419">
        <g id="Group_418" data-name="Group 418">
          <g id="Group_593" data-name="Group 593">
            <path id="Path_418" data-name="Path 418" d="M-53.515,984.878h-55.864a1.016,1.016,0,0,1-.992-.991V969.475h-.793a1.017,1.017,0,0,1-.992-.992,1.017,1.017,0,0,1,.992-.992h11.239v-19.5h-8.4a1.017,1.017,0,0,1-.992-.992,1.017,1.017,0,0,1,.992-.992h.991V940.65h-.991a1.016,1.016,0,0,1-.992-.991,1.017,1.017,0,0,1,.992-.992h6.346a5.378,5.378,0,0,1,4.033-2.644v-2.116a1,1,0,0,1-.925-.992,1.015,1.015,0,0,1,.991-.991h1.785a1.016,1.016,0,0,1,.992.991,1,1,0,0,1-.926.992v2.116a5.308,5.308,0,0,1,4.033,2.578v.066h6.148a1.017,1.017,0,0,1,.992.992,1.016,1.016,0,0,1-.992.991h-.793v5.355h.793a1.017,1.017,0,0,1,.992.992,1.017,1.017,0,0,1-.992.992h-8.131v19.5h42.311a.92.92,0,0,1,.925.992,1.016,1.016,0,0,1-.991.992h-.794v14.412A1.015,1.015,0,0,1-53.515,984.878Z" fill="#fff"/>
          </g>
          <path id="Path_419" data-name="Path 419" d="M-50.851,968.907a.953.953,0,0,0,.084-.289,1.01,1.01,0,0,0,.029-.135.909.909,0,0,0-.233-.682.841.841,0,0,0-.155-.122.831.831,0,0,0-.117-.088.936.936,0,0,0-.175-.05.927.927,0,0,0-.166-.047c-.026,0-.052,0-.078,0h-59.5a1.017,1.017,0,0,0-.992.992,1.017,1.017,0,0,0,.992.992h.793v14.412l0,.006a.982.982,0,0,0,.277.66.725.725,0,0,0,.072.064.972.972,0,0,0,.613.255c.01,0,.018.006.028.007h55.864c.024,0,.043-.013.066-.015a.941.941,0,0,0,.358-.1,1.011,1.011,0,0,0,.484-.5.915.915,0,0,0,.049-.223.84.84,0,0,0,.035-.158V969.475h.793a.194.194,0,0,1,.023-.005.954.954,0,0,0,.5-.175A1,1,0,0,0-50.851,968.907Z" fill="#96cdff"/>
          <g id="Path_248" data-name="Path 248">
            <g id="Group_594" data-name="Group 594">
              <path id="Path_420" data-name="Path 420" d="M-62.974,947.213l4.76,2.578a3.147,3.147,0,0,0,1.587.4,3.2,3.2,0,0,0,1.719-.463l16.065-9.915a2.9,2.9,0,0,0,1.256-1.785,2.673,2.673,0,0,0-.463-2.116,2.64,2.64,0,0,0-3.636-.661l-5.355,3.438H-59.47a2.148,2.148,0,0,0-1.653.727l-.6.6a1.3,1.3,0,0,0-.33,1.19,1.391,1.391,0,0,0,.859.86l5.95,1.388-1.587.926-3.24-.793a2.444,2.444,0,0,0-2.115.463l-.992.859a1.562,1.562,0,0,0-.529,1.256A1.334,1.334,0,0,0-62.974,947.213Z" fill="none"/>
            </g>
            <g id="Group_595" data-name="Group 595">
              <path id="Path_421" data-name="Path 421" d="M-56.627,948.188a1.234,1.234,0,0,0,.659-.158l0,0,.005,0,16.065-9.917.01-.006.011-.007a.937.937,0,0,0,.329-.506.683.683,0,0,0-.085-.452l-.022-.028-.021-.029a.645.645,0,0,0-.531-.285.666.666,0,0,0-.374.117l-.015.01-.014.009-5.355,3.438-.494.317H-58.265l3.481.812,4.9,1.143-4.342,2.533-1.586.925-.7.408-.785-.193-3.239-.793-.026-.006-.025-.007a.2.2,0,0,0-.053-.006.528.528,0,0,0-.281.1l-.319.277,3.983,2.157.02.011.02.011a1.171,1.171,0,0,0,.594.133m0,2a3.14,3.14,0,0,1-1.586-.4l-4.76-2.578a1.334,1.334,0,0,1-.728-1.058,1.567,1.567,0,0,1,.529-1.257l.992-.859a2.527,2.527,0,0,1,1.536-.539,2.187,2.187,0,0,1,.579.076l3.24.794,1.587-.926-5.95-1.388a1.386,1.386,0,0,1-.86-.86,1.3,1.3,0,0,1,.331-1.19l.595-.6a2.149,2.149,0,0,1,1.652-.727h12.429l5.355-3.438a2.677,2.677,0,0,1,1.484-.453,2.646,2.646,0,0,1,2.152,1.114,2.68,2.68,0,0,1,.463,2.116,2.9,2.9,0,0,1-1.256,1.785l-16.065,9.917A3.207,3.207,0,0,1-56.627,950.188Z" fill="#00306c"/>
            </g>
          </g>
          <g id="Path_248-2" data-name="Path 248">
            <g id="Group_596" data-name="Group 596">
              <path id="Path_422" data-name="Path 422" d="M-62.974,947.213l4.76,2.578a3.147,3.147,0,0,0,1.587.4,3.2,3.2,0,0,0,1.719-.463l16.065-9.915a2.9,2.9,0,0,0,1.256-1.785,2.673,2.673,0,0,0-.463-2.116,2.64,2.64,0,0,0-3.636-.661l-5.355,3.438H-59.47a2.148,2.148,0,0,0-1.653.727l-.6.6a1.3,1.3,0,0,0-.33,1.19,1.391,1.391,0,0,0,.859.86l5.95,1.388-1.587.926-3.24-.793a2.444,2.444,0,0,0-2.115.463l-.992.859a1.562,1.562,0,0,0-.529,1.256A1.334,1.334,0,0,0-62.974,947.213Z" fill="none"/>
            </g>
          </g>
          <g id="Path_249" data-name="Path 249">
            <g id="Group_597" data-name="Group 597">
              <path id="Path_423" data-name="Path 423" d="M-51.665,967.492H-93.976v-19.5h8.132a.992.992,0,0,0,.96-1.023.99.99,0,0,0-.96-.96h-.793v-5.355h.793a.992.992,0,0,0,1.023-.96.991.991,0,0,0-.96-1.023q-.032,0-.063,0h-6.148V938.6a5.307,5.307,0,0,0-4.033-2.578v-2.115a1,1,0,0,0,.925-.992,1.016,1.016,0,0,0-.992-.992h-1.785a1.017,1.017,0,0,0-.992.992,1,1,0,0,0,.926.992v2.115a5.376,5.376,0,0,0-4.033,2.644h-6.346a.992.992,0,0,0-1.023.96.993.993,0,0,0,.96,1.023h1.055v5.355h-.992a.992.992,0,0,0-.96,1.023.993.993,0,0,0,.96.96h8.4v19.5h-11.242a.992.992,0,0,0-.96,1.023.993.993,0,0,0,.96.96h.793v14.412a1.019,1.019,0,0,0,.992.992h55.864a1.017,1.017,0,0,0,.992-.992V969.475h.793a1.017,1.017,0,0,0,.992-.992.92.92,0,0,0-.846-.989A.733.733,0,0,0-51.665,967.492Z" fill="none"/>
            </g>
            <g id="Group_598" data-name="Group 598">
              <path id="Path_424" data-name="Path 424" d="M-54.524,982.878V969.491H-95.975v-23.5h7.338v-5.322h-4.616l-.739-1.485A3.644,3.644,0,0,0-96.318,938l-.665-.1-.666.1a3.415,3.415,0,0,0-2.554,1.594l-.561,1.072h-4.566v5.322h7.4v23.5h-10.446v13.387h53.847m1.009,2h-55.864a1.016,1.016,0,0,1-.992-.991V969.475h-.793a1.017,1.017,0,0,1-.992-.992,1.017,1.017,0,0,1,.992-.992h11.239v-19.5h-8.4a1.017,1.017,0,0,1-.992-.992,1.017,1.017,0,0,1,.992-.992h.991V940.65h-.991a1.016,1.016,0,0,1-.992-.991,1.017,1.017,0,0,1,.992-.992h6.346a5.378,5.378,0,0,1,4.033-2.644v-2.116a1,1,0,0,1-.925-.992,1.015,1.015,0,0,1,.991-.991h1.785a1.016,1.016,0,0,1,.992.991,1,1,0,0,1-.926.992v2.116a5.308,5.308,0,0,1,4.033,2.578v.066h6.148a1.017,1.017,0,0,1,.992.992,1.016,1.016,0,0,1-.992.991h-.793v5.355h.793a1.017,1.017,0,0,1,.992.992,1.017,1.017,0,0,1-.992.992h-8.131v19.5h42.311a.92.92,0,0,1,.925.992,1.016,1.016,0,0,1-.991.992h-.794v14.412A1.015,1.015,0,0,1-53.515,984.878Z" fill="#00306c"/>
            </g>
          </g>
        </g>
        <g id="Line_84" data-name="Line 84">
          <rect id="Rectangle_386" data-name="Rectangle 386" width="2" height="8.497" transform="translate(-93.253 938.923)" fill="#00306c"/>
        </g>
        <g id="Line_86" data-name="Line 86">
          <rect id="Rectangle_387" data-name="Rectangle 387" width="2" height="8.497" transform="translate(-102.689 938.923)" fill="#00306c"/>
        </g>
        <g id="Line_91" data-name="Line 91">
          <rect id="Rectangle_388" data-name="Rectangle 388" width="2" height="16.55" transform="translate(-61.033 968.328)" fill="#00306c"/>
        </g>
        <g id="Line_92" data-name="Line 92">
          <rect id="Rectangle_389" data-name="Rectangle 389" width="2" height="16.55" transform="translate(-70.197 968.328)" fill="#00306c"/>
        </g>
        <g id="Line_93" data-name="Line 93">
          <rect id="Rectangle_390" data-name="Rectangle 390" width="2" height="16.55" transform="translate(-78.215 968.328)" fill="#00306c"/>
        </g>
        <g id="Line_94" data-name="Line 94">
          <rect id="Rectangle_391" data-name="Rectangle 391" width="2" height="16.55" transform="translate(-86.234 968.328)" fill="#00306c"/>
        </g>
        <g id="Line_95" data-name="Line 95">
          <rect id="Rectangle_392" data-name="Rectangle 392" width="2" height="16.55" transform="translate(-94.253 968.328)" fill="#00306c"/>
        </g>
        <g id="Line_96" data-name="Line 96">
          <rect id="Rectangle_393" data-name="Rectangle 393" width="2" height="16.55" transform="translate(-103.418 968.328)" fill="#00306c"/>
        </g>
        <rect id="Rectangle_394" data-name="Rectangle 394" width="10.745" height="2.016" transform="translate(-102.191 967.476)" fill="#00306c"/>
      </g>
    </g>
  </g>
</svg>
