<svg xmlns="http://www.w3.org/2000/svg" width="79" height="62.498" viewBox="0 0 79 62.498">
  <g id="Group_653" data-name="Group 653" transform="translate(-1260 -6273)">
    <circle id="Ellipse_57" data-name="Ellipse 57" cx="29.5" cy="29.5" r="29.5" transform="translate(1280 6273)" fill="#e0eeff"/>
    <g id="Group_571" data-name="Group 571" transform="translate(1286.62 5407.664)">
      <g id="Group_549" data-name="Group 549">
        <rect id="Rectangle_384" data-name="Rectangle 384" width="11.692" height="15.851" transform="translate(-13.148 891.651)" fill="#fff"/>
      </g>
      <g id="Group_550" data-name="Group 550">
        <rect id="Rectangle_385" data-name="Rectangle 385" width="11.873" height="15.851" transform="translate(16.693 891.651)" fill="#fff"/>
      </g>
      <g id="Group_551" data-name="Group 551">
        <path id="Path_372" data-name="Path 372" d="M35.127,917.45H26.49a.417.417,0,0,1,0-.833h7.632v-2.724a1.21,1.21,0,0,0-1.208-1.209H-17.5a1.209,1.209,0,0,0-1.207,1.209v2.724H8.757a.417.417,0,0,1,0,.833H-19.709a1.209,1.209,0,0,0-1.208,1.208v2.725H36.335v-2.725A1.209,1.209,0,0,0,35.127,917.45Z" fill="#96cdff"/>
      </g>
      <g id="Group_552" data-name="Group 552">
        <path id="Path_373" data-name="Path 373" d="M31.78,909.127a1.21,1.21,0,0,0-1.208-1.209H-15.154a1.21,1.21,0,0,0-1.208,1.209v2.724H31.78Z" fill="#96cdff"/>
      </g>
      <g id="Group_553" data-name="Group 553">
        <path id="Path_374" data-name="Path 374" d="M6.062,874.88l-21.717,15.946a.457.457,0,0,0,.27.825H30.8a.457.457,0,0,0,.27-.825L9.356,874.88A2.785,2.785,0,0,0,6.062,874.88Z" fill="#96cdff"/>
        <path id="Path_375" data-name="Path 375" d="M30.8,892.651H-15.385a1.454,1.454,0,0,1-1.385-1,1.455,1.455,0,0,1,.523-1.628L5.47,874.074a3.766,3.766,0,0,1,4.477,0L31.665,890.02a1.457,1.457,0,0,1-.862,2.631Zm-44.53-2H29.145L8.764,875.687a1.772,1.772,0,0,0-2.11,0h0ZM6.062,874.88h0Z" fill="#002d82"/>
      </g>
      <g id="Group_554" data-name="Group 554">
        <path id="Path_376" data-name="Path 376" d="M-13.148,908.5a1,1,0,0,1-1-1V891.651a1,1,0,0,1,1-1,1,1,0,0,1,1,1V907.5A1,1,0,0,1-13.148,908.5Z" fill="#002d82"/>
      </g>
      <g id="Group_555" data-name="Group 555">
        <path id="Path_377" data-name="Path 377" d="M-9.189,908.5a1,1,0,0,1-1-1V891.651a1,1,0,0,1,1-1,1,1,0,0,1,1,1V907.5A1,1,0,0,1-9.189,908.5Z" fill="#002d82"/>
      </g>
      <g id="Group_556" data-name="Group 556">
        <path id="Path_378" data-name="Path 378" d="M10.114,884.069a2.406,2.406,0,1,0-2.405,2.406A2.405,2.405,0,0,0,10.114,884.069Z" fill="#fff"/>
        <path id="Path_379" data-name="Path 379" d="M7.709,887.475a3.405,3.405,0,1,1,3.405-3.406A3.41,3.41,0,0,1,7.709,887.475Zm0-4.811a1.405,1.405,0,1,0,1.405,1.4A1.407,1.407,0,0,0,7.709,882.664Z" fill="#002d82"/>
      </g>
      <g id="Group_557" data-name="Group 557">
        <path id="Path_380" data-name="Path 380" d="M-5.231,908.5a1,1,0,0,1-1-1V891.651a1,1,0,0,1,1-1,1,1,0,0,1,1,1V907.5A1,1,0,0,1-5.231,908.5Z" fill="#002d82"/>
      </g>
      <g id="Group_558" data-name="Group 558">
        <path id="Path_381" data-name="Path 381" d="M-1.272,908.5a1,1,0,0,1-1-1V891.651a1,1,0,0,1,1-1,1,1,0,0,1,1,1V907.5A1,1,0,0,1-1.272,908.5Z" fill="#002d82"/>
      </g>
      <g id="Group_559" data-name="Group 559">
        <path id="Path_382" data-name="Path 382" d="M16.69,908.5a1,1,0,0,1-1-1V891.651a1,1,0,0,1,2,0V907.5A1,1,0,0,1,16.69,908.5Z" fill="#002d82"/>
      </g>
      <g id="Group_560" data-name="Group 560">
        <path id="Path_383" data-name="Path 383" d="M20.649,908.5a1,1,0,0,1-1-1V891.651a1,1,0,0,1,2,0V907.5A1,1,0,0,1,20.649,908.5Z" fill="#002d82"/>
      </g>
      <g id="Group_561" data-name="Group 561">
        <path id="Path_384" data-name="Path 384" d="M24.607,908.5a1,1,0,0,1-1-1V891.651a1,1,0,0,1,2,0V907.5A1,1,0,0,1,24.607,908.5Z" fill="#002d82"/>
      </g>
      <g id="Group_562" data-name="Group 562">
        <path id="Path_385" data-name="Path 385" d="M28.566,908.5a1,1,0,0,1-1-1V891.651a1,1,0,0,1,2,0V907.5A1,1,0,0,1,28.566,908.5Z" fill="#002d82"/>
      </g>
      <g id="Group_563" data-name="Group 563">
        <path id="Path_386" data-name="Path 386" d="M32.2,913.268a1,1,0,0,1-1-1v-3.142a.625.625,0,0,0-.624-.624H-15.154a.625.625,0,0,0-.625.624v3.142a1,1,0,0,1-1,1,1,1,0,0,1-1-1v-3.142a2.628,2.628,0,0,1,2.625-2.624H30.572a2.627,2.627,0,0,1,2.624,2.624v3.142A1,1,0,0,1,32.2,913.268Z" fill="#002d82"/>
      </g>
      <g id="Group_564" data-name="Group 564">
        <path id="Path_387" data-name="Path 387" d="M34.539,918.034a1,1,0,0,1-1-1v-3.141a.625.625,0,0,0-.625-.625H-17.5a.625.625,0,0,0-.624.625v3.141a1,1,0,0,1-1,1,1,1,0,0,1-1-1v-3.141a2.627,2.627,0,0,1,2.624-2.625H32.914a2.628,2.628,0,0,1,2.625,2.625v3.141A1,1,0,0,1,34.539,918.034Z" fill="#002d82"/>
      </g>
      <g id="Group_565" data-name="Group 565">
        <path id="Path_388" data-name="Path 388" d="M36.752,922.8H-21.334a1,1,0,0,1-1-1v-3.141a2.627,2.627,0,0,1,2.625-2.624H8.757a1,1,0,0,1,0,2H-19.709a.625.625,0,0,0-.625.624V920.8H35.752v-2.141a.625.625,0,0,0-.625-.624H26.49a1,1,0,0,1,0-2h8.637a2.628,2.628,0,0,1,2.625,2.624V921.8A1,1,0,0,1,36.752,922.8Z" fill="#002d82"/>
      </g>
      <g id="Group_566" data-name="Group 566">
        <path id="Path_389" data-name="Path 389" d="M16.178,918.034H13.113a1,1,0,0,1,0-2h3.065a1,1,0,0,1,0,2Z" fill="#002d82"/>
      </g>
      <g id="Group_567" data-name="Group 567">
        <path id="Path_390" data-name="Path 390" d="M41.038,922.8H-25.62a1,1,0,0,1-1-1,1,1,0,0,1,1-1H41.038a1,1,0,0,1,0,2Z" fill="#002d82"/>
      </g>
      <g id="Group_568" data-name="Group 568">
        <path id="Path_391" data-name="Path 391" d="M34.826,927.834H6.378a1,1,0,0,1,0-2H34.826a1,1,0,0,1,0,2Z" fill="#002d82"/>
      </g>
      <g id="Group_569" data-name="Group 569">
        <path id="Path_392" data-name="Path 392" d="M-10.161,927.834h-9.248a1,1,0,0,1-1-1,1,1,0,0,1,1-1h9.248a1,1,0,0,1,1,1A1,1,0,0,1-10.161,927.834Z" fill="#002d82"/>
      </g>
      <g id="Group_570" data-name="Group 570">
        <path id="Path_393" data-name="Path 393" d="M-.2,927.834h-4.4a1,1,0,0,1-1-1,1,1,0,0,1,1-1H-.282a1.034,1.034,0,0,1,1.038,1A.967.967,0,0,1-.2,927.834Z" fill="#002d82"/>
      </g>
    </g>
  </g>
</svg>
