<svg xmlns="http://www.w3.org/2000/svg" width="80" height="64.238" viewBox="0 0 80 64.238">
  <g id="Group_650" data-name="Group 650" transform="translate(-619 -6276)">
    <circle id="Ellipse_55" data-name="Ellipse 55" cx="29.5" cy="29.5" r="29.5" transform="translate(640 6276)" fill="#e0eeff"/>
    <g id="Group_612" data-name="Group 612" transform="translate(420 6076.865)">
      <line id="Line_107" data-name="Line 107" y2="14.622" transform="translate(203.329 244.821)" fill="none" stroke="#00306c" stroke-linecap="round" stroke-linejoin="round" stroke-width="2"/>
      <line id="Line_108" data-name="Line 108" y2="14.622" transform="translate(202.917 244.409)" fill="none" stroke="#00306c" stroke-linecap="round" stroke-linejoin="round" stroke-width="2"/>
      <line id="Line_109" data-name="Line 109" y2="14.622" transform="translate(263.03 244.409)" fill="none" stroke="#00306c" stroke-linecap="round" stroke-linejoin="round" stroke-width="2"/>
      <line id="Line_110" data-name="Line 110" y2="14.622" transform="translate(208.053 244.409)" fill="none" stroke="#00306c" stroke-linecap="round" stroke-linejoin="round" stroke-width="2"/>
      <line id="Line_111" data-name="Line 111" y2="15.64" transform="translate(216.941 243.39)" fill="none" stroke="#00306c" stroke-linecap="round" stroke-linejoin="round" stroke-width="2"/>
      <line id="Line_112" data-name="Line 112" y2="14.622" transform="translate(257.894 244.409)" fill="none" stroke="#00306c" stroke-linecap="round" stroke-linejoin="round" stroke-width="2"/>
      <line id="Line_113" data-name="Line 113" y2="15.641" transform="translate(249.006 243.389)" fill="none" stroke="#00306c" stroke-linecap="round" stroke-linejoin="round" stroke-width="2"/>
      <path id="Path_467" data-name="Path 467" d="M426.559,575.253c-.017,2-.359,12.329-5.565,15.089" transform="translate(-198.223 -331.311)" fill="none" stroke="#00306c" stroke-linecap="round" stroke-linejoin="round" stroke-width="2"/>
      <path id="Path_468" data-name="Path 468" d="M565,574.631c.01,1.828.3,12.363,5.565,15.153" transform="translate(-327.388 -330.753)" fill="none" stroke="#00306c" stroke-linecap="round" stroke-linejoin="round" stroke-width="2"/>
      <path id="Path_469" data-name="Path 469" d="M265.947,725.025H200v-.836a2.507,2.507,0,0,1,2.507-2.507H263.44a2.507,2.507,0,0,1,2.507,2.507Z" transform="translate(0 -462.652)" fill="none" stroke="#00306c" stroke-linecap="round" stroke-linejoin="round" stroke-width="2"/>
      <path id="Path_470" data-name="Path 470" d="M201.664,534.136V536.5c0,1.287,1.382,2.33,3.087,2.33a3.317,3.317,0,0,0,2.7-1.224,3.593,3.593,0,0,0,5.4,0,3.593,3.593,0,0,0,5.4,0,3.593,3.593,0,0,0,5.4,0,3.593,3.593,0,0,0,5.4,0,3.593,3.593,0,0,0,5.4,0,3.593,3.593,0,0,0,5.4,0,3.593,3.593,0,0,0,5.4,0,3.593,3.593,0,0,0,5.4,0,3.593,3.593,0,0,0,5.4,0,3.593,3.593,0,0,0,5.4,0,3.317,3.317,0,0,0,2.7,1.224c1.705,0,3.087-1.043,3.087-2.33v-2.366" transform="translate(-1.493 -294.431)" fill="none" stroke="#00306c" stroke-linecap="round" stroke-linejoin="round" stroke-width="2"/>
      <path id="Path_471" data-name="Path 471" d="M221.145,442.107c-6.855,4.382-14.535,8.1-19.48,9.483h65.6c-4.944-1.381-12.623-5.1-19.476-9.48" transform="translate(-1.493 -211.885)" fill="#a3d4ff" stroke="#00306c" stroke-linecap="round" stroke-linejoin="round" stroke-width="2"/>
      <path id="Path_472" data-name="Path 472" d="M338.149,442.111c-4.171,4.382-8.844,8.1-11.853,9.482" transform="translate(-113.282 -211.888)" fill="none" stroke="#00306c" stroke-linecap="round" stroke-linejoin="round" stroke-width="2"/>
      <path id="Path_473" data-name="Path 473" d="M610.531,451.6c-3.009-1.381-7.682-5.1-11.853-9.481" transform="translate(-357.597 -211.895)" fill="none" stroke="#00306c" stroke-linecap="round" stroke-linejoin="round" stroke-width="2"/>
      <path id="Path_474" data-name="Path 474" d="M452.653,441.961c-1.546,4.388-3.28,8.115-4.4,9.5" transform="translate(-222.677 -211.754)" fill="none" stroke="#00306c" stroke-linecap="round" stroke-linejoin="round" stroke-width="2"/>
      <path id="Path_475" data-name="Path 475" d="M553.48,451.459c-1.116-1.383-2.849-5.109-4.4-9.5" transform="translate(-313.114 -211.754)" fill="none" stroke="#00306c" stroke-linecap="round" stroke-linejoin="round" stroke-width="2"/>
      <path id="Path_476" data-name="Path 476" d="M417.285,365.878v7.84H390.622v-7.84" transform="translate(-170.979 -143.511)" fill="none" stroke="#00306c" stroke-linecap="round" stroke-linejoin="round" stroke-width="2"/>
      <line id="Line_114" data-name="Line 114" y1="8.209" transform="translate(227.203 221.999)" fill="none" stroke="#00306c" stroke-linecap="round" stroke-linejoin="round" stroke-width="2"/>
      <line id="Line_115" data-name="Line 115" y2="8.208" transform="translate(238.744 221.999)" fill="none" stroke="#00306c" stroke-linecap="round" stroke-linejoin="round" stroke-width="2"/>
      <path id="Path_477" data-name="Path 477" d="M401.431,331.375v1.484c0,1.193-1.282,2.161-2.863,2.161h0a3.075,3.075,0,0,1-2.505-1.135,3.332,3.332,0,0,1-5.01,0,3.332,3.332,0,0,1-5.01,0,3.332,3.332,0,0,1-5.01,0,3.332,3.332,0,0,1-5.01,0,3.075,3.075,0,0,1-2.505,1.135c-1.581,0-2.863-.967-2.863-2.161v-1.484" transform="translate(-153.068 -112.563)" fill="none" stroke="#00306c" stroke-linecap="round" stroke-linejoin="round" stroke-width="2"/>
      <path id="Path_478" data-name="Path 478" d="M386.043,205.881c-2.6,4.922-11.144,11.36-15.389,12.931h30.778C397.187,217.24,388.644,210.8,386.043,205.881Z" transform="translate(-153.069 0)" fill="#a3d4ff" stroke="#00306c" stroke-linecap="round" stroke-linejoin="round" stroke-width="2"/>
      <path id="Path_479" data-name="Path 479" d="M479.733,218.812c-1.442-1.571-4.343-8.009-5.226-12.931-.883,4.922-3.784,11.36-5.226,12.931" transform="translate(-241.534 0)" fill="none" stroke="#00306c" stroke-linecap="round" stroke-linejoin="round" stroke-width="2"/>
    </g>
  </g>
</svg>
