<svg xmlns="http://www.w3.org/2000/svg" width="80" height="59" viewBox="0 0 80 59">
  <g id="Group_647" data-name="Group 647" transform="translate(-1047 -6121)">
    <circle id="Ellipse_53" data-name="Ellipse 53" cx="29.5" cy="29.5" r="29.5" transform="translate(1068 6121)" fill="#e0eeff"/>
    <g id="Group_606" data-name="Group 606" transform="translate(-1070.191 3775.429)">
      <path id="Path_462" data-name="Path 462" d="M2191.592,2395.96h-13.169v-28.974l6.714-4.14,6.456,3.265Z" fill="#96cdff"/>
      <path id="Path_448" data-name="Path 448" d="M2284.651,2432.067V2402.85l6.838-4.27,6.837,4.27v29.218h14.682" transform="translate(-146.041 -36.108)" fill="#96cdff" stroke="#00306c" stroke-linecap="round" stroke-linejoin="round" stroke-width="2"/>
      <path id="Path_449" data-name="Path 449" d="M2362.52,2433.387h4" transform="translate(-214.358 -66.645)" fill="none" stroke="#00306c" stroke-linecap="round" stroke-linejoin="round" stroke-width="2"/>
      <path id="Path_450" data-name="Path 450" d="M2286.045,2433.387h6.184" transform="translate(-147.264 -66.645)" fill="none" stroke="#00306c" stroke-linecap="round" stroke-linejoin="round" stroke-width="2"/>
      <path id="Path_451" data-name="Path 451" d="M2312.672,2477.118v15.471" transform="translate(-170.625 -105.012)" fill="none" stroke="#00306c" stroke-linecap="round" stroke-linejoin="round" stroke-width="2"/>
      <path id="Path_452" data-name="Path 452" d="M2445.394,2429.367V2402.85l6.837-4.27,6.837,4.27v29.218h14.959" transform="translate(-287.066 -36.108)" fill="#fff" stroke="#00306c" stroke-linecap="round" stroke-linejoin="round" stroke-width="2"/>
      <path id="Path_453" data-name="Path 453" d="M2523.95,2433.387h3.911" transform="translate(-355.986 -66.645)" fill="none" stroke="#00306c" stroke-linecap="round" stroke-linejoin="round" stroke-width="2"/>
      <path id="Path_454" data-name="Path 454" d="M2446.786,2433.387h6.5" transform="translate(-288.287 -66.645)" fill="none" stroke="#00306c" stroke-linecap="round" stroke-linejoin="round" stroke-width="2"/>
      <path id="Path_455" data-name="Path 455" d="M2473.416,2477.118v15.471" transform="translate(-311.651 -105.012)" fill="none" stroke="#00306c" stroke-linecap="round" stroke-linejoin="round" stroke-width="2"/>
      <path id="Path_456" data-name="Path 456" d="M2178.045,2429.367V2402.85l6.837-4.27,6.838,4.27v29.218h3.644v5.346h-77.173v-5.346h28.868" transform="translate(0 -36.108)" fill="none" stroke="#00306c" stroke-linecap="round" stroke-linejoin="round" stroke-width="2"/>
      <path id="Path_457" data-name="Path 457" d="M2687.29,2433.387h3.591" transform="translate(-499.29 -66.645)" fill="none" stroke="#00306c" stroke-linecap="round" stroke-linejoin="round" stroke-width="2"/>
      <path id="Path_458" data-name="Path 458" d="M2607.527,2433.387h7.055" transform="translate(-429.311 -66.645)" fill="none" stroke="#00306c" stroke-linecap="round" stroke-linejoin="round" stroke-width="2"/>
      <path id="Path_459" data-name="Path 459" d="M2634.158,2477.118v15.471" transform="translate(-452.675 -105.012)" fill="none" stroke="#00306c" stroke-linecap="round" stroke-linejoin="round" stroke-width="2"/>
      <path id="Path_460" data-name="Path 460" d="M2118.191,2560.852h0v-11.433h7.351v-3.854h6.831v15.286" transform="translate(0 -165.063)" fill="none" stroke="#00306c" stroke-linecap="round" stroke-linejoin="round" stroke-width="2"/>
      <line id="Line_94" data-name="Line 94" x2="0.811" transform="translate(2120.777 2387.511)" fill="none" stroke="#00306c" stroke-linecap="round" stroke-linejoin="round" stroke-width="2"/>
      <line id="Line_95" data-name="Line 95" x2="0.811" transform="translate(2124.299 2387.511)" fill="none" stroke="#00306c" stroke-linecap="round" stroke-linejoin="round" stroke-width="2"/>
      <line id="Line_96" data-name="Line 96" x2="0.811" transform="translate(2120.777 2390.5)" fill="none" stroke="#00306c" stroke-linecap="round" stroke-linejoin="round" stroke-width="2"/>
      <line id="Line_97" data-name="Line 97" x2="0.811" transform="translate(2124.299 2390.5)" fill="none" stroke="#00306c" stroke-linecap="round" stroke-linejoin="round" stroke-width="2"/>
      <path id="Path_461" data-name="Path 461" d="M2202.07,2380.084v-20.526a2.134,2.134,0,0,1,2.135-2.134h52.133a2.134,2.134,0,0,1,2.135,2.134v2.915" transform="translate(-73.59 0)" fill="none" stroke="#00306c" stroke-linecap="round" stroke-linejoin="round" stroke-width="2"/>
      <line id="Line_98" data-name="Line 98" y2="5.048" transform="translate(2145.448 2357.424)" fill="none" stroke="#00306c" stroke-linecap="round" stroke-linejoin="round" stroke-width="2"/>
      <line id="Line_99" data-name="Line 99" y2="5.048" transform="translate(2165.165 2357.424)" fill="none" stroke="#00306c" stroke-linecap="round" stroke-linejoin="round" stroke-width="2"/>
    </g>
  </g>
</svg>
