<svg xmlns="http://www.w3.org/2000/svg" width="79" height="68.658" viewBox="0 0 79 68.658">
  <g id="Group_642" data-name="Group 642" transform="translate(-1048 -5959)">
    <circle id="Ellipse_47" data-name="Ellipse 47" cx="29.5" cy="29.5" r="29.5" transform="translate(1068 5964)" fill="#e0eeff"/>
    <g id="Group_548" data-name="Group 548" transform="translate(639.006 5200.227)">
      <g id="Group_524" data-name="Group 524">
        <rect id="Rectangle_383" data-name="Rectangle 383" width="21.683" height="61.976" transform="translate(438.028 759.774)" fill="#96cdff"/>
        <path id="Path_346" data-name="Path 346" d="M459.711,822.75H438.028a1,1,0,0,1-1-1V759.774a1,1,0,0,1,1-1h21.683a1,1,0,0,1,1,1V821.75A1,1,0,0,1,459.711,822.75Zm-20.683-2h19.683V760.774H439.028Z" fill="#002d82"/>
      </g>
      <g id="Group_525" data-name="Group 525">
        <path id="Path_347" data-name="Path 347" d="M438.029,759.774l-7.465,6.5V821.5h7.464Z" fill="#fff"/>
        <path id="Path_348" data-name="Path 348" d="M438.028,822.495h-7.464a1,1,0,0,1-1-1V766.27a1,1,0,0,1,.344-.754l7.465-6.5a1,1,0,0,1,1.656.754v61.721A1,1,0,0,1,438.028,822.495Zm-6.464-2h5.464V761.97l-5.465,4.756Z" fill="#002d82"/>
      </g>
      <g id="Group_526" data-name="Group 526">
        <path id="Path_349" data-name="Path 349" d="M445.728,766.163H442.3a1,1,0,1,1,0-2h3.428a1,1,0,0,1,0,2Z" fill="#002d82"/>
      </g>
      <g id="Group_527" data-name="Group 527">
        <path id="Path_350" data-name="Path 350" d="M445.728,770.037H442.3a1,1,0,1,1,0-2h3.428a1,1,0,0,1,0,2Z" fill="#002d82"/>
      </g>
      <g id="Group_528" data-name="Group 528">
        <path id="Path_351" data-name="Path 351" d="M445.728,773.91H442.3a1,1,0,1,1,0-2h3.428a1,1,0,0,1,0,2Z" fill="#002d82"/>
      </g>
      <g id="Group_529" data-name="Group 529">
        <path id="Path_352" data-name="Path 352" d="M445.728,777.784H442.3a1,1,0,1,1,0-2h3.428a1,1,0,0,1,0,2Z" fill="#002d82"/>
      </g>
      <g id="Group_530" data-name="Group 530">
        <path id="Path_353" data-name="Path 353" d="M445.728,781.657H442.3a1,1,0,1,1,0-2h3.428a1,1,0,0,1,0,2Z" fill="#002d82"/>
      </g>
      <g id="Group_531" data-name="Group 531">
        <path id="Path_354" data-name="Path 354" d="M445.728,785.53H442.3a1,1,0,1,1,0-2h3.428a1,1,0,0,1,0,2Z" fill="#002d82"/>
      </g>
      <g id="Group_532" data-name="Group 532">
        <path id="Path_355" data-name="Path 355" d="M445.728,789.4H442.3a1,1,0,1,1,0-2h3.428a1,1,0,0,1,0,2Z" fill="#002d82"/>
      </g>
      <g id="Group_533" data-name="Group 533">
        <path id="Path_356" data-name="Path 356" d="M445.728,793.277H442.3a1,1,0,1,1,0-2h3.428a1,1,0,0,1,0,2Z" fill="#002d82"/>
      </g>
      <g id="Group_534" data-name="Group 534">
        <path id="Path_357" data-name="Path 357" d="M445.728,797.151H442.3a1,1,0,1,1,0-2h3.428a1,1,0,0,1,0,2Z" fill="#002d82"/>
      </g>
      <g id="Group_535" data-name="Group 535">
        <path id="Path_358" data-name="Path 358" d="M445.728,801.024H442.3a1,1,0,1,1,0-2h3.428a1,1,0,0,1,0,2Z" fill="#002d82"/>
      </g>
      <g id="Group_536" data-name="Group 536">
        <path id="Path_359" data-name="Path 359" d="M445.728,804.9H442.3a1,1,0,1,1,0-2h3.428a1,1,0,0,1,0,2Z" fill="#002d82"/>
      </g>
      <g id="Group_537" data-name="Group 537">
        <path id="Path_360" data-name="Path 360" d="M445.728,808.771H442.3a1,1,0,1,1,0-2h3.428a1,1,0,0,1,0,2Z" fill="#002d82"/>
      </g>
      <g id="Group_538" data-name="Group 538">
        <path id="Path_361" data-name="Path 361" d="M445.728,812.645H442.3a1,1,0,1,1,0-2h3.428a1,1,0,0,1,0,2Z" fill="#002d82"/>
      </g>
      <g id="Group_539" data-name="Group 539">
        <path id="Path_362" data-name="Path 362" d="M471.97,822.75H409.994a1,1,0,0,1,0-2H471.97a1,1,0,0,1,0,2Z" fill="#002d82"/>
      </g>
      <g id="Group_540" data-name="Group 540">
        <path id="Path_363" data-name="Path 363" d="M466.2,827.431h-26.45a1,1,0,0,1,0-2H466.2a1,1,0,0,1,0,2Z" fill="#002d82"/>
      </g>
      <g id="Group_541" data-name="Group 541">
        <path id="Path_364" data-name="Path 364" d="M424.368,827.431h-8.6a1,1,0,0,1,0-2h8.6a1,1,0,0,1,0,2Z" fill="#002d82"/>
      </g>
      <g id="Group_542" data-name="Group 542">
        <path id="Path_365" data-name="Path 365" d="M433.624,827.431h-4.092a1,1,0,0,1,0-2h4.02a1.032,1.032,0,0,1,1.036,1A.97.97,0,0,1,433.624,827.431Z" fill="#002d82"/>
      </g>
      <g id="Group_543" data-name="Group 543">
        <path id="Path_366" data-name="Path 366" d="M429.555,802.436a3.722,3.722,0,0,0-3.607-6.456,3.34,3.34,0,1,0-5.746.9c-.1-.007-.2-.016-.31-.016a4.351,4.351,0,0,0-3.018,7.487,5.623,5.623,0,0,0,2.021,10.871,5.114,5.114,0,0,0,4.636-3,6.666,6.666,0,0,0,4.422,1.668,5.839,5.839,0,0,0,1.6-11.454Z" fill="#96cdff"/>
        <path id="Path_367" data-name="Path 367" d="M418.9,816.224a6.625,6.625,0,0,1-3.569-12.207,5.3,5.3,0,0,1-.788-2.8,5.364,5.364,0,0,1,4.108-5.208,4.342,4.342,0,1,1,8.514-1.314,4.717,4.717,0,0,1,4.119,7.38,6.837,6.837,0,0,1-3.327,12.812,7.991,7.991,0,0,1-4.161-1.2A5.917,5.917,0,0,1,418.9,816.224Zm1-18.358a3.351,3.351,0,0,0-2.324,5.767,1,1,0,0,1-.334,1.653,4.623,4.623,0,0,0,1.662,8.938,4.094,4.094,0,0,0,3.751-2.469,1,1,0,0,1,1.583-.248,5.64,5.64,0,0,0,3.723,1.383,4.839,4.839,0,0,0,1.328-9.492,1,1,0,0,1-.311-1.773,2.722,2.722,0,0,0-2.637-4.723,1,1,0,0,1-1.321-1.273,2.34,2.34,0,1,0-4.026.632,1,1,0,0,1,.1,1.088,1.016,1.016,0,0,1-.956.53C420.029,797.872,419.961,797.866,419.892,797.866Z" fill="#002d82"/>
      </g>
      <g id="Group_544" data-name="Group 544">
        <path id="Path_368" data-name="Path 368" d="M423.536,810.375a.994.994,0,0,1-.472-.12l-4.36-2.34a1,1,0,1,1,.946-1.762l4.36,2.341a1,1,0,0,1-.474,1.881Z" fill="#002d82"/>
      </g>
      <g id="Group_545" data-name="Group 545">
        <path id="Path_369" data-name="Path 369" d="M423.532,822.75a1,1,0,0,1-1-1V798.214a1,1,0,0,1,2,0V821.75A1,1,0,0,1,423.532,822.75Z" fill="#002d82"/>
      </g>
      <g id="Group_546" data-name="Group 546">
        <path id="Path_370" data-name="Path 370" d="M423.531,803.219a1,1,0,0,1-.491-.129l-3.364-1.9a1,1,0,0,1,.982-1.742l2.848,1.606,2.544-1.584a1,1,0,1,1,1.056,1.7l-3.046,1.9A1,1,0,0,1,423.531,803.219Z" fill="#002d82"/>
      </g>
      <g id="Group_547" data-name="Group 547">
        <path id="Path_371" data-name="Path 371" d="M423.538,810.375a1,1,0,0,1-.4-1.916l4.694-2.062a1,1,0,0,1,.8,1.832l-4.694,2.061A.983.983,0,0,1,423.538,810.375Z" fill="#002d82"/>
      </g>
    </g>
  </g>
</svg>
