<svg xmlns="http://www.w3.org/2000/svg" width="79" height="68.658" viewBox="0 0 79 68.658">
  <g id="Group_643" data-name="Group 643" transform="translate(-1260 -5964)">
    <circle id="Ellipse_48" data-name="Ellipse 48" cx="29.5" cy="29.5" r="29.5" transform="translate(1280 5964)" fill="#e0eeff"/>
    <g id="Group_523" data-name="Group 523" transform="translate(960.468 5207.726)">
      <g id="Group_498" data-name="Group 498">
        <path id="Path_319" data-name="Path 319" d="M320.863,768.615v50.463h30.651V768.615Z" fill="#96cdff"/>
        <path id="Path_320" data-name="Path 320" d="M351.514,820.077H320.863a1,1,0,0,1-1-1V768.615a1,1,0,0,1,1-1h30.651a1,1,0,0,1,1,1v50.462A1,1,0,0,1,351.514,820.077Zm-29.651-2h28.651V769.615H321.863Z" fill="#002d82"/>
      </g>
      <g id="Group_499" data-name="Group 499">
        <rect id="Rectangle_369" data-name="Rectangle 369" width="4.047" height="8.704" transform="translate(334.165 810.373)" fill="#fff"/>
        <path id="Path_321" data-name="Path 321" d="M338.212,820.077h-4.047a1,1,0,0,1-1-1v-8.7a1,1,0,0,1,1-1h4.047a1,1,0,0,1,1,1v8.7A1,1,0,0,1,338.212,820.077Zm-3.047-2h2.047v-6.7h-2.047Z" fill="#002d82"/>
      </g>
      <g id="Group_500" data-name="Group 500">
        <path id="Path_322" data-name="Path 322" d="M364.8,820.077H300.532a1,1,0,0,1,0-2H364.8a1,1,0,0,1,0,2Z" fill="#002d82"/>
      </g>
      <g id="Group_501" data-name="Group 501">
        <path id="Path_323" data-name="Path 323" d="M358,824.932H330.578a1,1,0,0,1,0-2H358a1,1,0,0,1,0,2Z" fill="#002d82"/>
      </g>
      <g id="Group_502" data-name="Group 502">
        <path id="Path_324" data-name="Path 324" d="M314.632,824.932h-8.915a1,1,0,0,1,0-2h8.915a1,1,0,0,1,0,2Z" fill="#002d82"/>
      </g>
      <g id="Group_503" data-name="Group 503">
        <path id="Path_325" data-name="Path 325" d="M324.23,824.932h-4.242a1,1,0,0,1,0-2h4.168a1.032,1.032,0,0,1,1.037,1A.969.969,0,0,1,324.23,824.932Z" fill="#002d82"/>
      </g>
      <g id="Group_504" data-name="Group 504">
        <path id="Path_326" data-name="Path 326" d="M302.925,805.869a5.632,5.632,0,0,0,5.632,5.631,6.428,6.428,0,0,0,4.262-1.608,4.934,4.934,0,0,0,4.47,2.894,5.421,5.421,0,0,0,1.949-10.481,4.195,4.195,0,0,0-2.91-7.218c-.1,0-.2.008-.3.015a3.222,3.222,0,1,0-5.54-.869,3.588,3.588,0,0,0-3.477,6.224A5.631,5.631,0,0,0,302.925,805.869Z" fill="#fff"/>
        <path id="Path_327" data-name="Path 327" d="M317.289,813.786a5.731,5.731,0,0,1-4.729-2.432,7.751,7.751,0,0,1-4,1.146,6.627,6.627,0,0,1-3.26-12.4,4.584,4.584,0,0,1,3.808-7.144q.091,0,.18,0a4.222,4.222,0,1,1,8.287,1.279,5.206,5.206,0,0,1,3.953,5.046,5.141,5.141,0,0,1-.747,2.686,6.423,6.423,0,0,1-3.489,11.816Zm-4.47-4.894a1,1,0,0,1,.885.533,3.913,3.913,0,0,0,3.585,2.361,4.421,4.421,0,0,0,1.588-8.548,1,1,0,0,1-.334-1.653,3.167,3.167,0,0,0,.982-2.3,3.2,3.2,0,0,0-3.2-3.2c-.066,0-.131.006-.2.01a1.008,1.008,0,0,1-.971-.53,1,1,0,0,1,.083-1.086,2.191,2.191,0,0,0,.481-1.375,2.222,2.222,0,1,0-4.3.776,1,1,0,0,1-1.323,1.273,2.554,2.554,0,0,0-1-.2,2.587,2.587,0,0,0-1.508,4.69,1,1,0,0,1-.31,1.773,4.629,4.629,0,0,0,1.27,9.081,5.476,5.476,0,0,0,3.563-1.323A1,1,0,0,1,312.819,808.892Z" fill="#002d82"/>
      </g>
      <g id="Group_505" data-name="Group 505">
        <path id="Path_328" data-name="Path 328" d="M312.815,808.146a1,1,0,0,1-.474-1.88l4.2-2.257a1,1,0,1,1,.946,1.762l-4.2,2.256A.993.993,0,0,1,312.815,808.146Z" fill="#002d82"/>
      </g>
      <g id="Group_506" data-name="Group 506">
        <path id="Path_329" data-name="Path 329" d="M312.819,820.077a1,1,0,0,1-1-1v-22.69a1,1,0,0,1,2,0v22.69A1,1,0,0,1,312.819,820.077Z" fill="#002d82"/>
      </g>
      <g id="Group_507" data-name="Group 507">
        <path id="Path_330" data-name="Path 330" d="M312.819,801.248a.994.994,0,0,1-.528-.151l-2.937-1.828a1,1,0,0,1,1.056-1.7l2.435,1.516,2.726-1.538a1,1,0,0,1,.983,1.743l-3.243,1.828A1,1,0,0,1,312.819,801.248Z" fill="#002d82"/>
      </g>
      <g id="Group_508" data-name="Group 508">
        <path id="Path_331" data-name="Path 331" d="M312.813,808.147a.984.984,0,0,1-.4-.085l-4.526-1.988a1,1,0,1,1,.805-1.831l4.525,1.988a1,1,0,0,1-.4,1.916Z" fill="#002d82"/>
      </g>
      <g id="Group_509" data-name="Group 509">
        <rect id="Rectangle_370" data-name="Rectangle 370" width="12.619" height="5.525" transform="translate(329.879 763.089)" fill="#fff"/>
        <path id="Path_332" data-name="Path 332" d="M342.5,769.615H329.879a1,1,0,0,1-1-1v-5.526a1,1,0,0,1,1-1H342.5a1,1,0,0,1,1,1v5.526A1,1,0,0,1,342.5,769.615Zm-11.619-2H341.5v-3.526H330.879Z" fill="#002d82"/>
      </g>
      <g id="Group_510" data-name="Group 510">
        <path id="Path_333" data-name="Path 333" d="M336.188,764.089a1,1,0,0,1-1-1v-5.815a1,1,0,0,1,2,0v5.815A1,1,0,0,1,336.188,764.089Z" fill="#002d82"/>
      </g>
      <g id="Group_511" data-name="Group 511">
        <rect id="Rectangle_371" data-name="Rectangle 371" width="4.047" height="4.872" transform="translate(326.022 783.588)" fill="#fff"/>
        <path id="Path_334" data-name="Path 334" d="M330.069,789.459h-4.047a1,1,0,0,1-1-1v-4.872a1,1,0,0,1,1-1h4.047a1,1,0,0,1,1,1v4.872A1,1,0,0,1,330.069,789.459Zm-3.047-2h2.047v-2.872h-2.047Z" fill="#002d82"/>
      </g>
      <g id="Group_512" data-name="Group 512">
        <rect id="Rectangle_372" data-name="Rectangle 372" width="4.047" height="4.872" transform="translate(334.165 783.588)" fill="#fff"/>
        <path id="Path_335" data-name="Path 335" d="M338.212,789.459h-4.047a1,1,0,0,1-1-1v-4.872a1,1,0,0,1,1-1h4.047a1,1,0,0,1,1,1v4.872A1,1,0,0,1,338.212,789.459Zm-3.047-2h2.047v-2.872h-2.047Z" fill="#002d82"/>
      </g>
      <g id="Group_513" data-name="Group 513">
        <rect id="Rectangle_373" data-name="Rectangle 373" width="4.047" height="4.872" transform="translate(342.308 783.588)" fill="#fff"/>
        <path id="Path_336" data-name="Path 336" d="M346.355,789.459h-4.047a1,1,0,0,1-1-1v-4.872a1,1,0,0,1,1-1h4.047a1,1,0,0,1,1,1v4.872A1,1,0,0,1,346.355,789.459Zm-3.047-2h2.047v-2.872h-2.047Z" fill="#002d82"/>
      </g>
      <g id="Group_514" data-name="Group 514">
        <rect id="Rectangle_374" data-name="Rectangle 374" width="4.047" height="4.872" transform="translate(326.022 792.424)" fill="#fff"/>
        <path id="Path_337" data-name="Path 337" d="M330.069,798.3h-4.047a1,1,0,0,1-1-1v-4.872a1,1,0,0,1,1-1h4.047a1,1,0,0,1,1,1V797.3A1,1,0,0,1,330.069,798.3Zm-3.047-2h2.047v-2.872h-2.047Z" fill="#002d82"/>
      </g>
      <g id="Group_515" data-name="Group 515">
        <rect id="Rectangle_375" data-name="Rectangle 375" width="4.047" height="4.872" transform="translate(334.165 792.424)" fill="#fff"/>
        <path id="Path_338" data-name="Path 338" d="M338.212,798.3h-4.047a1,1,0,0,1-1-1v-4.872a1,1,0,0,1,1-1h4.047a1,1,0,0,1,1,1V797.3A1,1,0,0,1,338.212,798.3Zm-3.047-2h2.047v-2.872h-2.047Z" fill="#002d82"/>
      </g>
      <g id="Group_516" data-name="Group 516">
        <rect id="Rectangle_376" data-name="Rectangle 376" width="4.047" height="4.872" transform="translate(342.308 792.424)" fill="#fff"/>
        <path id="Path_339" data-name="Path 339" d="M346.355,798.3h-4.047a1,1,0,0,1-1-1v-4.872a1,1,0,0,1,1-1h4.047a1,1,0,0,1,1,1V797.3A1,1,0,0,1,346.355,798.3Zm-3.047-2h2.047v-2.872h-2.047Z" fill="#002d82"/>
      </g>
      <g id="Group_517" data-name="Group 517">
        <rect id="Rectangle_377" data-name="Rectangle 377" width="4.047" height="4.872" transform="translate(326.022 801.26)" fill="#fff"/>
        <path id="Path_340" data-name="Path 340" d="M330.069,807.132h-4.047a1,1,0,0,1-1-1V801.26a1,1,0,0,1,1-1h4.047a1,1,0,0,1,1,1v4.872A1,1,0,0,1,330.069,807.132Zm-3.047-2h2.047V802.26h-2.047Z" fill="#002d82"/>
      </g>
      <g id="Group_518" data-name="Group 518">
        <rect id="Rectangle_378" data-name="Rectangle 378" width="4.047" height="4.872" transform="translate(334.165 801.26)" fill="#fff"/>
        <path id="Path_341" data-name="Path 341" d="M338.212,807.132h-4.047a1,1,0,0,1-1-1V801.26a1,1,0,0,1,1-1h4.047a1,1,0,0,1,1,1v4.872A1,1,0,0,1,338.212,807.132Zm-3.047-2h2.047V802.26h-2.047Z" fill="#002d82"/>
      </g>
      <g id="Group_519" data-name="Group 519">
        <rect id="Rectangle_379" data-name="Rectangle 379" width="4.047" height="4.872" transform="translate(342.308 801.26)" fill="#fff"/>
        <path id="Path_342" data-name="Path 342" d="M346.355,807.132h-4.047a1,1,0,0,1-1-1V801.26a1,1,0,0,1,1-1h4.047a1,1,0,0,1,1,1v4.872A1,1,0,0,1,346.355,807.132Zm-3.047-2h2.047V802.26h-2.047Z" fill="#002d82"/>
      </g>
      <g id="Group_520" data-name="Group 520">
        <rect id="Rectangle_380" data-name="Rectangle 380" width="4.047" height="4.872" transform="translate(326.022 774.751)" fill="#fff"/>
        <path id="Path_343" data-name="Path 343" d="M330.069,780.624h-4.047a1,1,0,0,1-1-1v-4.873a1,1,0,0,1,1-1h4.047a1,1,0,0,1,1,1v4.873A1,1,0,0,1,330.069,780.624Zm-3.047-2h2.047v-2.873h-2.047Z" fill="#002d82"/>
      </g>
      <g id="Group_521" data-name="Group 521">
        <rect id="Rectangle_381" data-name="Rectangle 381" width="4.047" height="4.872" transform="translate(334.165 774.751)" fill="#fff"/>
        <path id="Path_344" data-name="Path 344" d="M338.212,780.624h-4.047a1,1,0,0,1-1-1v-4.873a1,1,0,0,1,1-1h4.047a1,1,0,0,1,1,1v4.873A1,1,0,0,1,338.212,780.624Zm-3.047-2h2.047v-2.873h-2.047Z" fill="#002d82"/>
      </g>
      <g id="Group_522" data-name="Group 522">
        <rect id="Rectangle_382" data-name="Rectangle 382" width="4.047" height="4.872" transform="translate(342.308 774.751)" fill="#fff"/>
        <path id="Path_345" data-name="Path 345" d="M346.355,780.624h-4.047a1,1,0,0,1-1-1v-4.873a1,1,0,0,1,1-1h4.047a1,1,0,0,1,1,1v4.873A1,1,0,0,1,346.355,780.624Zm-3.047-2h2.047v-2.873h-2.047Z" fill="#002d82"/>
      </g>
    </g>
  </g>
</svg>
