<svg xmlns="http://www.w3.org/2000/svg" width="80" height="59" viewBox="0 0 80 59">
  <g id="Group_645" data-name="Group 645" transform="translate(-619 -6121)">
    <circle id="Ellipse_50" data-name="Ellipse 50" cx="29.5" cy="29.5" r="29.5" transform="translate(640 6121)" fill="#e0eeff"/>
    <g id="Group_604" data-name="Group 604" transform="translate(-1510.291 5838.168)">
      <line id="Line_79" data-name="Line 79" y2="13.245" transform="translate(2164.075 299.092)" fill="none" stroke="#0f4c82" stroke-linecap="round" stroke-linejoin="round" stroke-width="2"/>
      <line id="Line_80" data-name="Line 80" x1="1.216" y2="17.204" transform="translate(2177.069 300.738)" fill="none" stroke="#0f4c82" stroke-linecap="round" stroke-linejoin="round" stroke-width="2"/>
      <line id="Line_81" data-name="Line 81" x1="2.656" y2="14.187" transform="translate(2187.224 305.173)" fill="none" stroke="#0f4c82" stroke-linecap="round" stroke-linejoin="round" stroke-width="2"/>
      <path id="Path_431" data-name="Path 431" d="M2180.6,578.112c-9,.539-16.729,1.887-21.89,3.717" transform="translate(-25.323 -260.489)" fill="none" stroke="#0f4c82" stroke-linecap="round" stroke-linejoin="round" stroke-width="2"/>
      <path id="Path_432" data-name="Path 432" d="M2542.514,581.834c-5.161-1.833-12.9-3.183-21.9-3.722" transform="translate(-347.742 -260.489)" fill="none" stroke="#0f4c82" stroke-linecap="round" stroke-linejoin="round" stroke-width="2"/>
      <line id="Line_82" data-name="Line 82" x2="1.178" y2="17.206" transform="translate(2149.864 300.738)" fill="none" stroke="#0f4c82" stroke-linecap="round" stroke-linejoin="round" stroke-width="2"/>
      <line id="Line_83" data-name="Line 83" x2="2.56" y2="14.204" transform="translate(2138.269 305.173)" fill="none" stroke="#0f4c82" stroke-linecap="round" stroke-linejoin="round" stroke-width="2"/>
      <path id="Path_433" data-name="Path 433" d="M2376.976,531.554a1.269,1.269,0,0,0-.962-1.273,49.135,49.135,0,0,0-15.665,0,1.268,1.268,0,0,0-.959,1.272v13.4h17.586Z" transform="translate(-204.108 -217.314)" fill="#96cdff" stroke="#0f4c82" stroke-linecap="round" stroke-linejoin="round" stroke-width="2"/>
      <line id="Line_84" data-name="Line 84" y2="15.183" transform="translate(2167.876 312.457)" fill="none" stroke="#0f4c82" stroke-linecap="round" stroke-linejoin="round" stroke-width="2"/>
      <line id="Line_85" data-name="Line 85" y2="15.186" transform="translate(2160.274 312.455)" fill="none" stroke="#0f4c82" stroke-linecap="round" stroke-linejoin="round" stroke-width="2"/>
      <path id="Path_434" data-name="Path 434" d="M2197.858,420.767c-6.05-7.417-18.9-12.536-33.784-12.536s-27.734,5.119-33.784,12.536h0l4.843,16.015,57.882.073,4.843-16.088Z" transform="translate(0 -109.139)" fill="none" stroke="#0f4c82" stroke-linecap="round" stroke-linejoin="round" stroke-width="2"/>
      <path id="Path_435" data-name="Path 435" d="M2598.5,298.411l-7.4-7.4,5.284-5.284,7.4,7.4-4.742.542Z" transform="translate(-410.55)" fill="#96cdff" stroke="#0f4c82" stroke-linecap="round" stroke-linejoin="round" stroke-width="2"/>
      <line id="Line_86" data-name="Line 86" x1="8.573" y2="8.573" transform="translate(2171.985 291.014)" fill="none" stroke="#0f4c82" stroke-linecap="round" stroke-linejoin="round" stroke-width="2"/>
      <path id="Path_436" data-name="Path 436" d="M2177.922,298.411l7.4-7.4-5.284-5.284-7.4,7.4,4.742.542Z" transform="translate(-37.728)" fill="#96cdff" stroke="#0f4c82" stroke-linecap="round" stroke-linejoin="round" stroke-width="2"/>
      <line id="Line_87" data-name="Line 87" x2="8.572" y2="8.572" transform="translate(2147.592 291.014)" fill="none" stroke="#0f4c82" stroke-linecap="round" stroke-linejoin="round" stroke-width="2"/>
      <line id="Line_88" data-name="Line 88" x2="66.024" transform="translate(2131.063 327.716)" fill="none" stroke="#0f4c82" stroke-linecap="round" stroke-linejoin="round" stroke-width="2"/>
      <line id="Line_89" data-name="Line 89" x2="28.177" transform="translate(2162.757 333.713)" fill="none" stroke="#0f4c82" stroke-linecap="round" stroke-linejoin="round" stroke-width="2"/>
      <line id="Line_90" data-name="Line 90" x2="9.16" transform="translate(2137.215 333.713)" fill="none" stroke="#0f4c82" stroke-linecap="round" stroke-linejoin="round" stroke-width="2"/>
      <path id="Path_437" data-name="Path 437" stroke="#0f4c82" d="M2328.178,725.61h6.3" fill="none" transform="translate(-176.301 -391.898)" stroke-linecap="round" stroke-linejoin="round" stroke-width="2" stroke-dasharray="4.656 40.881"/>
    </g>
  </g>
</svg>
