<svg xmlns="http://www.w3.org/2000/svg" width="79" height="68.657" viewBox="0 0 79 68.657">
  <g id="Group_640" data-name="Group 640" transform="translate(-620 -5959)">
    <circle id="Ellipse_45" data-name="Ellipse 45" cx="29.5" cy="29.5" r="29.5" transform="translate(640 5964)" fill="#e0eeff"/>
    <g id="Group_467" data-name="Group 467" transform="translate(644.739 5200.226)">
      <g id="Group_423" data-name="Group 423">
        <path id="Path_260" data-name="Path 260" d="M-20.131,769.74v51.94H-2.48V759.774Z" fill="#96cdff"/>
        <path id="Path_261" data-name="Path 261" d="M-2.479,822.68H-20.131a1,1,0,0,1-1-1V769.74a1,1,0,0,1,.508-.87L-2.971,758.9a1,1,0,0,1,1,.007,1,1,0,0,1,.5.864V821.68A1,1,0,0,1-2.479,822.68Zm-16.652-2H-3.479V761.487l-15.652,8.837Z" fill="#002d82"/>
      </g>
      <g id="Group_424" data-name="Group 424">
        <path id="Path_262" data-name="Path 262" d="M15.172,819.775V768.031L-2.48,759.774V821.68H15.173Z" fill="#fff"/>
        <path id="Path_263" data-name="Path 263" d="M15.173,822.68H-2.479a1,1,0,0,1-1-1V759.774a1,1,0,0,1,.463-.844,1,1,0,0,1,.96-.062L15.6,767.126a1,1,0,0,1,.576.906V821.68a1,1,0,0,1-1,1Zm-16.652-2H14.172v-.9h0V768.668l-15.651-7.322Z" fill="#002d82"/>
      </g>
      <g id="Group_426" data-name="Group 426">
        <g id="Group_425" data-name="Group 425">
          <path id="Path_264" data-name="Path 264" d="M-20.132,817.363a1,1,0,0,1-1-.958,1,1,0,0,1,.956-1.041l17.652-.748,6.6.228a1,1,0,0,1,.964,1.035.985.985,0,0,1-1.034.964l-6.526-.228-17.574.747Z" fill="#002d82"/>
        </g>
      </g>
      <g id="Group_428" data-name="Group 428">
        <g id="Group_427" data-name="Group 427">
          <path id="Path_265" data-name="Path 265" d="M-20.132,812.129a1,1,0,0,1-.994-.9,1,1,0,0,1,.9-1.092l17.652-1.712a.953.953,0,0,1,.177,0l6.525.525a1,1,0,0,1-.16,1.993l-6.437-.517-17.564,1.7C-20.068,812.127-20.1,812.129-20.132,812.129Z" fill="#002d82"/>
        </g>
      </g>
      <g id="Group_430" data-name="Group 430">
        <g id="Group_429" data-name="Group 429">
          <path id="Path_266" data-name="Path 266" d="M-20.133,806.9a1,1,0,0,1-.987-.85,1,1,0,0,1,.838-1.139l17.652-2.684a.978.978,0,0,1,.276,0l6.525.823a1,1,0,0,1-.25,1.984l-6.388-.8-17.514,2.663A.976.976,0,0,1-20.133,806.9Z" fill="#002d82"/>
        </g>
      </g>
      <g id="Group_432" data-name="Group 432">
        <g id="Group_431" data-name="Group 431">
          <path id="Path_267" data-name="Path 267" d="M-20.132,801.662a1,1,0,0,1-.978-.8,1,1,0,0,1,.776-1.182l17.652-3.656a1.008,1.008,0,0,1,.371-.006l6.526,1.119a1,1,0,0,1-.338,1.972l-6.339-1.088-17.467,3.617A1,1,0,0,1-20.132,801.662Z" fill="#002d82"/>
        </g>
      </g>
      <g id="Group_434" data-name="Group 434">
        <g id="Group_433" data-name="Group 433">
          <path id="Path_268" data-name="Path 268" d="M-20.132,796.429a1,1,0,0,1-.967-.747,1,1,0,0,1,.714-1.221l17.652-4.628a1.006,1.006,0,0,1,.466-.009l6.525,1.417a1,1,0,1,1-.425,1.954l-6.291-1.366-17.42,4.567A1.011,1.011,0,0,1-20.132,796.429Z" fill="#002d82"/>
        </g>
      </g>
      <g id="Group_436" data-name="Group 436">
        <g id="Group_435" data-name="Group 435">
          <path id="Path_269" data-name="Path 269" d="M-20.132,791.2a1,1,0,0,1-.952-.7,1,1,0,0,1,.65-1.256l17.652-5.6a1,1,0,0,1,.557-.014L4.3,785.343a1,1,0,0,1-.508,1.935l-6.246-1.642-17.375,5.512A1,1,0,0,1-20.132,791.2Z" fill="#002d82"/>
        </g>
      </g>
      <g id="Group_438" data-name="Group 438">
        <g id="Group_437" data-name="Group 437">
          <path id="Path_270" data-name="Path 270" d="M-20.131,785.962a1,1,0,0,1-.937-.651,1,1,0,0,1,.588-1.286l17.651-6.572a.994.994,0,0,1,.644-.018l6.526,2.012a1,1,0,0,1-.59,1.911l-6.2-1.912L-19.782,785.9A.994.994,0,0,1-20.131,785.962Z" fill="#002d82"/>
        </g>
      </g>
      <g id="Group_440" data-name="Group 440">
        <g id="Group_439" data-name="Group 439">
          <path id="Path_271" data-name="Path 271" d="M-20.131,780.729a1,1,0,0,1-.92-.608,1,1,0,0,1,.527-1.312l17.651-7.544a1,1,0,0,1,.727-.023l11.634,4.119a1,1,0,1,1-.668,1.886l-11.265-3.99-17.293,7.39A1,1,0,0,1-20.131,780.729Z" fill="#002d82"/>
        </g>
      </g>
      <g id="Group_442" data-name="Group 442">
        <g id="Group_441" data-name="Group 441">
          <path id="Path_272" data-name="Path 272" d="M-20.131,775.495a1,1,0,0,1-.9-.566,1,1,0,0,1,.466-1.335l17.652-8.516a1.009,1.009,0,0,1,.806-.028l17.651,7.056a1,1,0,1,1-.742,1.857l-17.243-6.892L-19.7,775.4A1,1,0,0,1-20.131,775.495Z" fill="#002d82"/>
        </g>
      </g>
      <g id="Group_443" data-name="Group 443">
        <path id="Path_273" data-name="Path 273" d="M8.19,781.428V821.68h13.68V773.7Z" fill="#96cdff"/>
        <path id="Path_274" data-name="Path 274" d="M21.869,822.68H8.189a1,1,0,0,1-1-1V781.428a1,1,0,0,1,.509-.87l13.679-7.724a1,1,0,0,1,1.492.871V821.68A1,1,0,0,1,21.869,822.68Zm-12.68-2h11.68V775.417l-11.68,6.6Z" fill="#002d82"/>
      </g>
      <g id="Group_444" data-name="Group 444">
        <path id="Path_275" data-name="Path 275" d="M21.869,773.7V821.68h13.68V780.1Z" fill="#fff"/>
        <path id="Path_276" data-name="Path 276" d="M35.549,822.68H21.869a1,1,0,0,1-1-1V773.705a1,1,0,0,1,1.424-.906l13.68,6.4a1,1,0,0,1,.576.906V821.68A1,1,0,0,1,35.549,822.68Zm-12.68-2h11.68V780.74l-11.68-5.464Z" fill="#002d82"/>
      </g>
      <g id="Group_446" data-name="Group 446">
        <g id="Group_445" data-name="Group 445">
          <path id="Path_277" data-name="Path 277" d="M8.189,818.559a1,1,0,0,1-.042-2l13.68-.579,13.757.479a1,1,0,0,1,.964,1.035.983.983,0,0,1-1.034.964l-13.68-.48-13.6.579Z" fill="#002d82"/>
        </g>
      </g>
      <g id="Group_448" data-name="Group 448">
        <g id="Group_447" data-name="Group 447">
          <path id="Path_278" data-name="Path 278" d="M8.188,814.5a1,1,0,0,1-.095-1.995l13.679-1.326a.872.872,0,0,1,.177,0l13.68,1.1a1,1,0,0,1-.16,1.993l-13.592-1.091L8.286,814.5C8.253,814.5,8.221,814.5,8.188,814.5Z" fill="#002d82"/>
        </g>
      </g>
      <g id="Group_450" data-name="Group 450">
        <g id="Group_449" data-name="Group 449">
          <path id="Path_279" data-name="Path 279" d="M8.188,810.448a1,1,0,0,1-.149-1.989l13.68-2.08a.972.972,0,0,1,.275,0l13.68,1.724a1,1,0,0,1-.25,1.984l-13.542-1.706L8.34,810.437A1.128,1.128,0,0,1,8.188,810.448Z" fill="#002d82"/>
        </g>
      </g>
      <g id="Group_452" data-name="Group 452">
        <g id="Group_451" data-name="Group 451">
          <path id="Path_280" data-name="Path 280" d="M8.188,806.392a1,1,0,0,1-.2-1.979l13.68-2.833a1.007,1.007,0,0,1,.371-.007l13.68,2.348a1,1,0,0,1-.338,1.971l-13.493-2.316L8.392,806.371A1.007,1.007,0,0,1,8.188,806.392Z" fill="#002d82"/>
        </g>
      </g>
      <g id="Group_454" data-name="Group 454">
        <g id="Group_453" data-name="Group 453">
          <path id="Path_281" data-name="Path 281" d="M8.189,802.336a1,1,0,0,1-.253-1.967l13.68-3.587a1.02,1.02,0,0,1,.466-.01l13.679,2.972a1,1,0,1,1-.425,1.954l-13.445-2.921L8.443,802.3A.973.973,0,0,1,8.189,802.336Z" fill="#002d82"/>
        </g>
      </g>
      <g id="Group_456" data-name="Group 456">
        <g id="Group_455" data-name="Group 455">
          <path id="Path_282" data-name="Path 282" d="M8.189,798.281a1,1,0,0,1-.3-1.954l13.68-4.34a1,1,0,0,1,.557-.014l13.679,3.6a1,1,0,1,1-.509,1.934l-13.4-3.522-13.4,4.252A1,1,0,0,1,8.189,798.281Z" fill="#002d82"/>
        </g>
      </g>
      <g id="Group_458" data-name="Group 458">
        <g id="Group_457" data-name="Group 457">
          <path id="Path_283" data-name="Path 283" d="M8.189,794.225a1,1,0,0,1-.349-1.938l13.68-5.093a.994.994,0,0,1,.644-.018l13.68,4.22a1,1,0,0,1-.59,1.911L21.9,789.187l-13.36,4.974A1,1,0,0,1,8.189,794.225Z" fill="#002d82"/>
        </g>
      </g>
      <g id="Group_460" data-name="Group 460">
        <g id="Group_459" data-name="Group 459">
          <path id="Path_284" data-name="Path 284" d="M8.19,790.169a1,1,0,0,1-.394-1.92l13.68-5.846a1,1,0,0,1,.727-.024l13.68,4.845a1,1,0,1,1-.668,1.885L21.9,784.4l-13.32,5.693A1,1,0,0,1,8.19,790.169Z" fill="#002d82"/>
        </g>
      </g>
      <g id="Group_462" data-name="Group 462">
        <g id="Group_461" data-name="Group 461">
          <path id="Path_285" data-name="Path 285" d="M8.19,786.113a1,1,0,0,1-.435-1.9l13.68-6.6a1.007,1.007,0,0,1,.805-.028l13.68,5.469a1,1,0,1,1-.742,1.857l-13.271-5.3L8.624,786.014A1,1,0,0,1,8.19,786.113Z" fill="#002d82"/>
        </g>
      </g>
      <g id="Group_463" data-name="Group 463">
        <path id="Path_286" data-name="Path 286" d="M39.157,822.68h-62.9a1,1,0,0,1-1-1,1,1,0,0,1,1-1h62.9a1,1,0,0,1,0,2Z" fill="#002d82"/>
      </g>
      <g id="Group_464" data-name="Group 464">
        <path id="Path_287" data-name="Path 287" d="M33.3,827.431H6.454a1,1,0,0,1,0-2H33.3a1,1,0,0,1,0,2Z" fill="#002d82"/>
      </g>
      <g id="Group_465" data-name="Group 465">
        <path id="Path_288" data-name="Path 288" d="M-9.153,827.431h-8.725a1,1,0,0,1-1-1,1,1,0,0,1,1-1h8.725a1,1,0,0,1,1,1A1,1,0,0,1-9.153,827.431Z" fill="#002d82"/>
      </g>
      <g id="Group_466" data-name="Group 466">
        <path id="Path_289" data-name="Path 289" d="M.241,827.431H-3.911a1,1,0,0,1-1-1,1,1,0,0,1,1-1H.168a1.032,1.032,0,0,1,1.037,1A.97.97,0,0,1,.241,827.431Z" fill="#002d82"/>
      </g>
    </g>
  </g>
</svg>
