<svg xmlns="http://www.w3.org/2000/svg" width="76" height="61.821" viewBox="0 0 76 61.821">
  <g id="Group_644" data-name="Group 644" transform="translate(-410 -6118)">
    <circle id="Ellipse_49" data-name="Ellipse 49" cx="29.5" cy="29.5" r="29.5" transform="translate(427 6118)" fill="#e0eeff"/>
    <g id="Group_591" data-name="Group 591" transform="translate(111.665 5250.49)">
      <g id="Group_572" data-name="Group 572">
        <path id="Path_394" data-name="Path 394" d="M303.622,880.439v42.8h26.944V874.511Z" fill="#96cdff"/>
        <path id="Path_395" data-name="Path 395" d="M330.566,924.238H303.622a1,1,0,0,1-1-1v-42.8a1,1,0,0,1,.785-.976l26.944-5.928a1,1,0,0,1,1.215.977v48.727A1,1,0,0,1,330.566,924.238Zm-25.944-2h24.944V875.755l-24.944,5.487Z" fill="#002d82"/>
      </g>
      <g id="Group_573" data-name="Group 573">
        <path id="Path_396" data-name="Path 396" d="M330.566,874.511v48.727h7.814V878.014Z" fill="#fff"/>
        <path id="Path_397" data-name="Path 397" d="M338.379,924.238h-7.813a1,1,0,0,1-1-1V874.511a1,1,0,0,1,1.409-.913l7.814,3.5a1,1,0,0,1,.59.913v45.224A1,1,0,0,1,338.379,924.238Zm-6.813-2h5.813V878.661l-5.813-2.606Z" fill="#002d82"/>
      </g>
      <g id="Group_574" data-name="Group 574">
        <path id="Path_398" data-name="Path 398" d="M307.818,887.021a1,1,0,0,1-.2-1.98l3.1-.633a1,1,0,1,1,.4,1.96l-3.1.632A.989.989,0,0,1,307.818,887.021Z" fill="#002d82"/>
      </g>
      <g id="Group_575" data-name="Group 575">
        <path id="Path_399" data-name="Path 399" d="M307.818,893.453a1,1,0,0,1-.174-1.984l3.111-.554a1,1,0,1,1,.35,1.968l-3.111.555A1.053,1.053,0,0,1,307.818,893.453Z" fill="#002d82"/>
      </g>
      <g id="Group_576" data-name="Group 576">
        <path id="Path_400" data-name="Path 400" d="M307.817,899.527a1,1,0,0,1-.133-1.99l3.131-.429a1,1,0,0,1,.27,1.982l-3.131.428A1.054,1.054,0,0,1,307.817,899.527Z" fill="#002d82"/>
      </g>
      <g id="Group_577" data-name="Group 577">
        <path id="Path_401" data-name="Path 401" d="M307.818,905.706a1,1,0,0,1-.1-2l3.145-.313a1,1,0,0,1,.2,1.99l-3.145.314C307.884,905.7,307.851,905.706,307.818,905.706Z" fill="#002d82"/>
      </g>
      <g id="Group_578" data-name="Group 578">
        <path id="Path_402" data-name="Path 402" d="M307.818,911.77a1,1,0,0,1-.062-2l3.154-.2a1,1,0,1,1,.126,2l-3.154.2Z" fill="#002d82"/>
      </g>
      <g id="Group_579" data-name="Group 579">
        <path id="Path_403" data-name="Path 403" d="M307.817,917.833a1,1,0,0,1-.021-2l3.16-.067a1.017,1.017,0,0,1,1.021.978,1,1,0,0,1-.978,1.022l-3.16.067Z" fill="#002d82"/>
      </g>
      <g id="Group_580" data-name="Group 580">
        <path id="Path_404" data-name="Path 404" d="M365.993,924.295H299.335a1,1,0,0,1,0-2h66.658a1,1,0,0,1,0,2Z" fill="#002d82"/>
      </g>
      <g id="Group_581" data-name="Group 581">
        <path id="Path_405" data-name="Path 405" d="M359.781,929.331H331.333a1,1,0,0,1,0-2h28.448a1,1,0,0,1,0,2Z" fill="#002d82"/>
      </g>
      <g id="Group_582" data-name="Group 582">
        <path id="Path_406" data-name="Path 406" d="M314.794,929.331h-9.248a1,1,0,0,1,0-2h9.248a1,1,0,0,1,0,2Z" fill="#002d82"/>
      </g>
      <g id="Group_583" data-name="Group 583">
        <path id="Path_407" data-name="Path 407" d="M324.75,929.331h-4.4a1,1,0,0,1,0-2h4.323a1.033,1.033,0,0,1,1.039,1A.968.968,0,0,1,324.75,929.331Z" fill="#002d82"/>
      </g>
      <g id="Group_584" data-name="Group 584">
        <path id="Path_408" data-name="Path 408" d="M335.8,896.2v27.039h20.078V891.781Z" fill="#96cdff"/>
        <path id="Path_409" data-name="Path 409" d="M355.883,924.238H335.8a1,1,0,0,1-1-1V896.2a1,1,0,0,1,.785-.977l20.078-4.417a1,1,0,0,1,1.215.976v31.457A1,1,0,0,1,355.883,924.238Zm-19.078-2h18.078V893.025L336.8,897Z" fill="#002d82"/>
      </g>
      <g id="Group_585" data-name="Group 585">
        <path id="Path_410" data-name="Path 410" d="M355.883,891.781v31.456h5.822V894.392Z" fill="#fff"/>
        <path id="Path_411" data-name="Path 411" d="M361.7,924.238h-5.822a1,1,0,0,1-1-1V891.781a1,1,0,0,1,1.409-.912l5.822,2.61a1,1,0,0,1,.591.913v28.846A1,1,0,0,1,361.7,924.238Zm-4.822-2H360.7v-27.2l-3.822-1.713Z" fill="#002d82"/>
      </g>
      <g id="Group_586" data-name="Group 586">
        <path id="Path_412" data-name="Path 412" d="M335.8,906.184a1,1,0,0,1-.134-1.991l20.078-2.746a1,1,0,1,1,.27,1.982l-20.078,2.745A.887.887,0,0,1,335.8,906.184Z" fill="#002d82"/>
      </g>
      <g id="Group_587" data-name="Group 587">
        <path id="Path_413" data-name="Path 413" d="M335.8,915.113a1,1,0,0,1-.062-2l20.078-1.269a1,1,0,1,1,.126,2l-20.078,1.269Z" fill="#002d82"/>
      </g>
      <g id="Group_588" data-name="Group 588">
        <path id="Path_414" data-name="Path 414" d="M340.162,924.238a1,1,0,0,1-1-1V895.382a1,1,0,0,1,2,0v27.856A1,1,0,0,1,340.162,924.238Z" fill="#002d82"/>
      </g>
      <g id="Group_589" data-name="Group 589">
        <path id="Path_415" data-name="Path 415" d="M345.119,924.238a1,1,0,0,1-1-1V894.149a1,1,0,0,1,2,0v29.089A1,1,0,0,1,345.119,924.238Z" fill="#002d82"/>
      </g>
      <g id="Group_590" data-name="Group 590">
        <path id="Path_416" data-name="Path 416" d="M350.4,924.238a1,1,0,0,1-1-1V893.1a1,1,0,0,1,2,0v30.142A1,1,0,0,1,350.4,924.238Z" fill="#002d82"/>
      </g>
    </g>
  </g>
</svg>
