<svg xmlns="http://www.w3.org/2000/svg" width="148.464" height="69" viewBox="0 0 148.464 69">
  <g id="Group_220" data-name="Group 220" transform="translate(-228.961 -222.258)">
    <text id="A_FACILITY_SERVICE_COMPANY" data-name="A FACILITY SERVICE COMPANY" transform="translate(234.58 289.894)" fill="#00306c" font-size="4" font-family="SegoeUI, Segoe UI"><tspan x="0" y="0" letter-spacing="0.413em">A</tspan><tspan y="0" letter-spacing="0.407em"> </tspan><tspan y="0" letter-spacing="0.398em">F</tspan><tspan y="0" letter-spacing="0.416em">A</tspan><tspan y="0" letter-spacing="0.42em">C</tspan><tspan y="0" letter-spacing="0.419em">I</tspan><tspan y="0" letter-spacing="0.42em">LI</tspan><tspan y="0" letter-spacing="0.453em">T</tspan><tspan y="0" letter-spacing="0.413em">Y</tspan><tspan y="0" letter-spacing="0.407em"> </tspan><tspan y="0" letter-spacing="0.42em">S</tspan><tspan y="0" letter-spacing="0.419em">E</tspan><tspan y="0" letter-spacing="0.42em">RVIC</tspan><tspan y="0" letter-spacing="0.412em">E</tspan><tspan y="0" letter-spacing="0.407em"> </tspan><tspan y="0" letter-spacing="0.417em">C</tspan><tspan y="0" letter-spacing="0.419em">OM</tspan><tspan y="0" letter-spacing="0.39em">P</tspan><tspan y="0" letter-spacing="0.42em">AN</tspan><tspan y="0">Y</tspan></text>
    <text id="PBS" transform="translate(228.961 278.258)" fill="#00306c" font-size="52" font-family="SegoeUI, Segoe UI"><tspan x="0" y="0" letter-spacing="-0.059em">P</tspan><tspan y="0" letter-spacing="-0.04em">B</tspan><tspan y="0">S</tspan></text>
    <path id="Path_6" data-name="Path 6" d="M448.984,234.48l-10.037,10.037v40.461h10.037Z" transform="translate(-113.222 -6.139)" fill="#b39969"/>
    <path id="Path_7" data-name="Path 7" d="M469.766,251.5,479.8,261.533v32.62H469.766Z" transform="translate(-129.84 -15.314)" fill="#b39969"/>
    <path id="Path_8" data-name="Path 8" d="M529.362,302.547,539.4,312.584v9.1H529.362Z" transform="translate(-161.973 -42.84)" fill="#9caab2"/>
    <path id="Path_9" data-name="Path 9" d="M509.6,234.48l-10.037,10.037v40.461H509.6Z" transform="translate(-145.906 -6.139)" fill="#00306c"/>
  </g>
</svg>
