<svg xmlns="http://www.w3.org/2000/svg" width="48.2" height="48.128" viewBox="0 0 48.2 48.128">
  <g id="Group_387" data-name="Group 387" transform="translate(-19.81 -19.872)">
    <g id="Group_377" data-name="Group 377">
      <path id="Path_186" data-name="Path 186" d="M27,35a3,3,0,0,1-2.809-1.948l-3-8a3,3,0,1,1,5.618-2.106l3,8A3,3,0,0,1,27,35Z" fill="none" stroke="#b39969" stroke-miterlimit="10" stroke-width="2"/>
    </g>
    <g id="Group_378" data-name="Group 378">
      <path id="Path_187" data-name="Path 187" d="M57,31A3,3,0,0,1,55.512,25.4l7-4a3,3,0,0,1,2.976,5.21l-7,4A2.988,2.988,0,0,1,57,31Z" fill="none" stroke="#b39969" stroke-miterlimit="10" stroke-width="2"/>
    </g>
    <g id="Group_379" data-name="Group 379">
      <path id="Path_188" data-name="Path 188" d="M50,31a2.977,2.977,0,0,1-1.485-.4l-7-4A3,3,0,1,1,44.489,21.4l7,4A3,3,0,0,1,50,31Z" fill="none" stroke="#b39969" stroke-miterlimit="10" stroke-width="2"/>
    </g>
    <g id="Group_380" data-name="Group 380">
      <path id="Path_189" data-name="Path 189" d="M41,40a3.2,3.2,0,0,1-.376-.023l-8-1a3,3,0,1,1,.745-5.954l8,1A3,3,0,0,1,41,40Z" fill="none" stroke="#b39969" stroke-miterlimit="10" stroke-width="2"/>
    </g>
    <g id="Group_381" data-name="Group 381">
      <path id="Path_190" data-name="Path 190" d="M48,54a3,3,0,0,1-2.809-1.948l-3-8a3,3,0,0,1,5.618-2.106l3,8A3,3,0,0,1,48,54Z" fill="none" stroke="#b39969" stroke-miterlimit="10" stroke-width="2"/>
    </g>
    <g id="Group_382" data-name="Group 382">
      <path id="Path_191" data-name="Path 191" d="M50,67H40a3,3,0,0,1,0-6H50a3,3,0,0,1,0,6Z" fill="none" stroke="#b39969" stroke-miterlimit="10" stroke-width="2"/>
    </g>
    <g id="Group_383" data-name="Group 383">
      <path id="Path_192" data-name="Path 192" d="M33,66a2.988,2.988,0,0,1-1.454-.378l-9-5a3,3,0,0,1,2.914-5.246l9,5A3,3,0,0,1,33,66Z" fill="none" stroke="#b39969" stroke-miterlimit="10" stroke-width="2"/>
    </g>
    <g id="Group_384" data-name="Group 384">
      <path id="Path_193" data-name="Path 193" d="M24,54a3,3,0,0,1-1.22-5.742l9-4a3,3,0,0,1,2.437,5.483l-9,4A2.99,2.99,0,0,1,24,54Z" fill="none" stroke="#b39969" stroke-miterlimit="10" stroke-width="2"/>
    </g>
    <g id="Group_385" data-name="Group 385">
      <path id="Path_194" data-name="Path 194" d="M64,67a3,3,0,0,1-3-3V54a3,3,0,0,1,6,0V64A3,3,0,0,1,64,67Z" fill="none" stroke="#b39969" stroke-miterlimit="10" stroke-width="2"/>
    </g>
    <g id="Group_386" data-name="Group 386">
      <path id="Path_195" data-name="Path 195" d="M63.029,50a2.99,2.99,0,0,1-2.134-.891L53.866,42a3,3,0,1,1,4.268-4.218l7.028,7.113A3,3,0,0,1,63.029,50Z" fill="none" stroke="#b39969" stroke-miterlimit="10" stroke-width="2"/>
    </g>
  </g>
</svg>
