<svg xmlns="http://www.w3.org/2000/svg" width="53.427" height="59.137" viewBox="0 0 53.427 59.137">
  <g id="Group_391" data-name="Group 391" transform="translate(-414.974 -624)">
    <path id="Path_202" data-name="Path 202" d="M608,639.349h4.489c2.479,0,2.479-6.349,0-6.349H608" transform="translate(-161.548 -6.73)" fill="none" stroke="#b39969" stroke-miterlimit="10" stroke-width="2"/>
    <path id="Path_203" data-name="Path 203" d="M471.236,640.236v-3.809l2.539-2.539h6.349V625H463.618c-5.079,0-7.618,2.936-7.618,7.618h2.539a4.054,4.054,0,0,1,3.809,3.809v3.809Z" transform="translate(-33.673)" fill="none" stroke="#b39969" stroke-linecap="round" stroke-linejoin="round" stroke-width="2"/>
    <path id="Path_204" data-name="Path 204" d="M587.942,682.278a18.553,18.553,0,0,0,5.139,10.138,15.461,15.461,0,0,1-2.694,2.827,14.635,14.635,0,0,1-2.259-.988" transform="translate(-144.674 -48.187)" fill="none" stroke="#b39969" stroke-linecap="round" stroke-linejoin="round" stroke-width="2"/>
    <path id="Path_205" data-name="Path 205" d="M419.788,762.9a3.644,3.644,0,0,1-3.809-3.809c.285-6.38,1.122-15.868,2.751-20,1.969-4.989,6.534-14.681,6.534-14.681.846-2.407,2.01-3.412,3.412-3.412h8.888a2.629,2.629,0,0,1,2.539,2.539c0,1.27-1.27,2.539-1.27,3.809s1.27,8.888,1.27,8.888c0,1.719,1.608,3.073,2.368,3.981s1.844,2.25,1.844,2.25a4.633,4.633,0,0,1,.867,3.023v13.6a3.809,3.809,0,0,1-3.809,3.809Z" transform="translate(0 -80.764)" fill="none" stroke="#b39969" stroke-linecap="round" stroke-miterlimit="10" stroke-width="2"/>
    <line id="Line_16" data-name="Line 16" x2="1.19" transform="translate(458.593 627.539)" fill="none" stroke="#b39969" stroke-linecap="round" stroke-linejoin="round" stroke-width="2"/>
    <line id="Line_17" data-name="Line 17" x2="1.27" transform="translate(458.514 632.618)" fill="none" stroke="#b39969" stroke-linecap="round" stroke-linejoin="round" stroke-width="2"/>
    <line id="Line_18" data-name="Line 18" x2="1.27" transform="translate(466.132 630.079)" fill="none" stroke="#b39969" stroke-linecap="round" stroke-linejoin="round" stroke-width="2"/>
    <line id="Line_19" data-name="Line 19" x2="1.27" transform="translate(466.132 635.158)" fill="none" stroke="#b39969" stroke-linecap="round" stroke-linejoin="round" stroke-width="2"/>
    <line id="Line_20" data-name="Line 20" x2="1.27" transform="translate(466.132 625)" fill="none" stroke="#b39969" stroke-linecap="round" stroke-linejoin="round" stroke-width="2"/>
    <path id="Path_206" data-name="Path 206" d="M480.888,852.809V849h-5.079v3.809H472v5.079h3.809V861.7h5.079v-3.809H484.7v-5.079Z" transform="translate(-47.133 -188.448)" fill="none" stroke="#b39969" stroke-linejoin="round" stroke-width="2"/>
  </g>
</svg>
