<svg xmlns="http://www.w3.org/2000/svg" width="48" height="48" viewBox="0 0 48 48">
  <g id="Group_390" data-name="Group 390" transform="translate(-116 -116)">
    <path id="Path_196" data-name="Path 196" d="M161,135a2,2,0,0,0-2,2,1,1,0,0,1-1,1h-1.765a3,3,0,0,1-2.868-2.118,13.927,13.927,0,0,0-1-2.422,3,3,0,0,1,.531-3.526l1.248-1.248a1,1,0,0,1,1.415,0,2,2,0,1,0,2.828-2.828l-4.243-4.243a2,2,0,0,0-2.828,2.828,1,1,0,0,1,0,1.415l-1.248,1.248a3,3,0,0,1-3.526.531,13.827,13.827,0,0,0-2.423-1A3,3,0,0,1,142,123.765V122a1,1,0,0,1,1-1,2,2,0,0,0,0-4h-6a2,2,0,0,0,0,4,1,1,0,0,1,1,1v1.765a3,3,0,0,1-2.118,2.868,13.848,13.848,0,0,0-2.422,1,3,3,0,0,1-3.526-.531l-1.248-1.248a1,1,0,0,1,0-1.415,2,2,0,0,0-2.828-2.828l-4.242,4.243a2,2,0,1,0,2.828,2.828,1,1,0,0,1,1.414,0l1.248,1.248a3,3,0,0,1,.531,3.526,13.848,13.848,0,0,0-1,2.422A3,3,0,0,1,123.765,138H122a1,1,0,0,1-1-1,2,2,0,0,0-4,0v6a2,2,0,0,0,4,0,1,1,0,0,1,1-1h1.765a3,3,0,0,1,2.868,2.118,13.848,13.848,0,0,0,1,2.422,3,3,0,0,1-.531,3.526l-1.247,1.248a1,1,0,0,1-1.416,0,2,2,0,0,0-2.828,2.828l2.121,2.12v0h0l2.12,2.12a2,2,0,1,0,2.828-2.828,1,1,0,0,1,0-1.415l1.248-1.248a3,3,0,0,1,3.526-.531,13.849,13.849,0,0,0,2.422,1A3,3,0,0,1,138,156.235V158a1,1,0,0,1-1,1,2,2,0,0,0,0,4h6a2,2,0,0,0,0-4,1,1,0,0,1-1-1v-1.765a3,3,0,0,1,2.117-2.868,13.827,13.827,0,0,0,2.423-1,3,3,0,0,1,3.526.531l1.248,1.247a1,1,0,0,1,0,1.416,2,2,0,1,0,2.828,2.828l2.121-2.121h0v0l2.12-2.119a2,2,0,1,0-2.828-2.828,1,1,0,0,1-1.415,0l-1.248-1.248a3,3,0,0,1-.531-3.526,13.927,13.927,0,0,0,1-2.422A3,3,0,0,1,156.235,142H158a1,1,0,0,1,1,1,2,2,0,0,0,4,0v-6A2,2,0,0,0,161,135Z" fill="none" stroke="#b39969" stroke-miterlimit="10" stroke-width="2"/>
    <path id="Path_197" data-name="Path 197" d="M140,150a10.006,10.006,0,0,0,9.95-9" fill="none" stroke="#b39969" stroke-miterlimit="10" stroke-width="2"/>
    <path id="Path_198" data-name="Path 198" d="M149.54,137a10,10,0,0,0-2.47-4.07" fill="none" stroke="#b39969" stroke-miterlimit="10" stroke-width="2"/>
    <path id="Path_199" data-name="Path 199" d="M130.2,142a9.995,9.995,0,0,0,2.73,5.07" fill="none" stroke="#b39969" stroke-miterlimit="10" stroke-width="2"/>
    <g id="Group_388" data-name="Group 388">
      <path id="Path_200" data-name="Path 200" d="M140,146a2,2,0,0,1,0-4,2,2,0,0,0,2-2,2,2,0,0,1,4,0A6.006,6.006,0,0,1,140,146Z" fill="none" stroke="#b39969" stroke-miterlimit="10" stroke-width="2"/>
    </g>
    <g id="Group_389" data-name="Group 389">
      <path id="Path_201" data-name="Path 201" d="M132.789,138.53a2,2,0,0,1-1.8-2.871,10.043,10.043,0,0,1,4.378-4.514,2,2,0,0,1,1.844,3.549,6.02,6.02,0,0,0-2.622,2.707A2,2,0,0,1,132.789,138.53Z" fill="none" stroke="#b39969" stroke-miterlimit="10" stroke-width="2"/>
    </g>
  </g>
</svg>
