<svg xmlns="http://www.w3.org/2000/svg" width="46.086" height="53.037" viewBox="0 0 46.086 53.037">
  <g id="Group_393" data-name="Group 393" transform="translate(-1157 -3446.183)">
    <g id="Group_392" data-name="Group 392" transform="translate(1134 3234.302)">
      <ellipse id="Ellipse_24" data-name="Ellipse 24" cx="10" cy="9.5" rx="10" ry="9.5" transform="translate(36 227.698)" fill="none" stroke="#b39969" stroke-miterlimit="10" stroke-width="2"/>
      <line id="Line_21" data-name="Line 21" x2="4" transform="translate(32 237.698)" fill="none" stroke="#b39969" stroke-miterlimit="10" stroke-width="2"/>
      <line id="Line_22" data-name="Line 22" x2="4" transform="translate(56 237.698)" fill="none" stroke="#b39969" stroke-miterlimit="10" stroke-width="2"/>
      <line id="Line_23" data-name="Line 23" y1="1.687" x2="4.073" transform="translate(32.806 241.043)" fill="none" stroke="#b39969" stroke-miterlimit="10" stroke-width="2"/>
      <line id="Line_24" data-name="Line 24" y1="1.687" x2="4.073" transform="translate(55.207 231.764)" fill="none" stroke="#b39969" stroke-miterlimit="10" stroke-width="2"/>
      <line id="Line_25" data-name="Line 25" y1="3.117" x2="3.117" transform="translate(35.911 244.261)" fill="none" stroke="#b39969" stroke-miterlimit="10" stroke-width="2"/>
      <line id="Line_26" data-name="Line 26" y1="3.117" x2="3.117" transform="translate(53.057 227.116)" fill="none" stroke="#b39969" stroke-miterlimit="10" stroke-width="2"/>
      <line id="Line_27" data-name="Line 27" y1="4.073" x2="1.687" transform="translate(40.56 246.411)" fill="none" stroke="#b39969" stroke-miterlimit="10" stroke-width="2"/>
      <line id="Line_28" data-name="Line 28" y1="4.073" x2="1.687" transform="translate(49.839 224.01)" fill="none" stroke="#b39969" stroke-miterlimit="10" stroke-width="2"/>
      <line id="Line_29" data-name="Line 29" y1="5" transform="translate(46 246.698)" fill="none" stroke="#b39969" stroke-miterlimit="10" stroke-width="2"/>
      <line id="Line_30" data-name="Line 30" y1="5" transform="translate(46 222.698)" fill="none" stroke="#b39969" stroke-miterlimit="10" stroke-width="2"/>
      <line id="Line_31" data-name="Line 31" x1="1.687" y1="4.073" transform="translate(49.839 246.411)" fill="none" stroke="#b39969" stroke-miterlimit="10" stroke-width="2"/>
      <line id="Line_32" data-name="Line 32" x1="1.687" y1="4.073" transform="translate(40.56 224.01)" fill="none" stroke="#b39969" stroke-miterlimit="10" stroke-width="2"/>
      <line id="Line_33" data-name="Line 33" x1="3.117" y1="3.117" transform="translate(53.057 244.261)" fill="none" stroke="#b39969" stroke-miterlimit="10" stroke-width="2"/>
      <line id="Line_34" data-name="Line 34" x1="3.117" y1="3.117" transform="translate(35.911 227.116)" fill="none" stroke="#b39969" stroke-miterlimit="10" stroke-width="2"/>
      <line id="Line_35" data-name="Line 35" x1="4.073" y1="1.687" transform="translate(55.207 241.043)" fill="none" stroke="#b39969" stroke-miterlimit="10" stroke-width="2"/>
      <line id="Line_36" data-name="Line 36" x1="4.073" y1="1.687" transform="translate(32.806 231.764)" fill="none" stroke="#b39969" stroke-miterlimit="10" stroke-width="2"/>
      <path id="Path_207" data-name="Path 207" d="M68.086,218.511v20.576a17.633,17.633,0,0,1-7.522,14.447L46.043,263.7,31.522,253.533A17.633,17.633,0,0,1,24,239.087V218.511a46.687,46.687,0,0,0,20.879-4.929L46.043,213l1.164.582A46.687,46.687,0,0,0,68.086,218.511Z" transform="translate(0)" fill="none" stroke="#b39969" stroke-miterlimit="10" stroke-width="2"/>
      <line id="Line_37" data-name="Line 37" y2="10" transform="translate(46 253.698)" fill="none" stroke="#b39969" stroke-miterlimit="10" stroke-width="2"/>
      <line id="Line_38" data-name="Line 38" y1="8" transform="translate(46 212.698)" fill="none" stroke="#b39969" stroke-miterlimit="10" stroke-width="2"/>
      <ellipse id="Ellipse_25" data-name="Ellipse 25" cx="2.5" cy="3" rx="2.5" ry="3" transform="translate(41 235.698)" fill="none" stroke="#b39969" stroke-miterlimit="10" stroke-width="2"/>
      <line id="Line_39" data-name="Line 39" y2="2" transform="translate(46 230.698)" fill="none" stroke="#b39969" stroke-miterlimit="10" stroke-width="2"/>
      <line id="Line_40" data-name="Line 40" y2="2" transform="translate(50 233.698)" fill="none" stroke="#b39969" stroke-miterlimit="10" stroke-width="2"/>
      <line id="Line_41" data-name="Line 41" y2="2" transform="translate(50 239.698)" fill="none" stroke="#b39969" stroke-miterlimit="10" stroke-width="2"/>
    </g>
  </g>
</svg>
