<svg xmlns="http://www.w3.org/2000/svg" width="150.278" height="150.278" viewBox="0 0 150.278 150.278">
  <g id="Group_405" data-name="Group 405" transform="translate(-4179.01 -213)">
    <circle id="Ellipse_27" data-name="Ellipse 27" cx="62" cy="62" r="62" transform="translate(4192.01 226.277)" fill="#bee0ff"/>
    <g id="Group_404" data-name="Group 404" transform="translate(4180.01 214)">
      <g id="Group_403" data-name="Group 403" transform="translate(0 0)">
        <g id="Group_401" data-name="Group 401" transform="translate(12.356 17.299)">
          <path id="Path_226" data-name="Path 226" d="M4342.725,552.26a4.838,4.838,0,0,1,.147,1.236c0,5.239-5.363,9.885-17.3,9.885a42.115,42.115,0,0,1-25.5-9.093s-4.694-4.228-5.98-6.376L4308.4,533.6c1.434.591,7.86,4.5,7.86,4.5,1.656,1.139,3.113,2.2,4.373,3.041a3.973,3.973,0,0,0,.444.27c3.56,2.177,9.367,3.364,14.087,5.044C4338.943,547.785,4342.008,549.467,4342.725,552.26Zm-14.681,1.236a2.471,2.471,0,1,0-2.471,2.471A2.479,2.479,0,0,0,4328.044,553.5Zm-14.21-4.943a3.089,3.089,0,1,0-3.089,3.089A3.09,3.09,0,0,0,4313.834,548.553Z" transform="translate(-4271.204 -452.172)" fill="#65bffc"/>
          <path id="Path_227" data-name="Path 227" d="M4301.432,528.348l-14.309,14.309a16.62,16.62,0,0,1-3.089-8.724,3.677,3.677,0,0,1-.024-.519c0-4.918,3.287-7.414,7.414-7.414A24.5,24.5,0,0,1,4301.432,528.348Z" transform="translate(-4264.239 -446.919)" fill="#65bffc"/>
          <circle id="Ellipse_28" data-name="Ellipse 28" cx="5" cy="5" r="5" transform="translate(108.644 24.979)" fill="#979faf"/>
          <path id="Path_228" data-name="Path 228" d="M4521.542,435.066A17.3,17.3,0,1,1,4509.309,430,17.206,17.206,0,0,1,4521.542,435.066Zm-4.819,4.82a2.471,2.471,0,1,0-2.471,2.471A2.479,2.479,0,0,0,4516.723,439.885Zm0,13.592a3.707,3.707,0,1,0-3.707,3.707A3.7,3.7,0,0,0,4516.723,453.477Zm-13.271-3.509a3.084,3.084,0,0,0-3.089-5.339,3.084,3.084,0,1,0,3.089,5.339Z" transform="translate(-4407.986 -380.574)" fill="#65bffc"/>
          <circle id="Ellipse_29" data-name="Ellipse 29" cx="2.5" cy="2.5" r="2.5" transform="translate(103.644 56.979)" fill="#303e58"/>
          <ellipse id="Ellipse_30" data-name="Ellipse 30" cx="3.5" cy="4" rx="3.5" ry="4" transform="translate(101.644 68.979)" fill="#303e58"/>
          <circle id="Ellipse_31" data-name="Ellipse 31" cx="6" cy="6" r="6" transform="translate(86.644 98.979)" fill="#fff"/>
          <path id="Path_229" data-name="Path 229" d="M4519.771,477.532a3.084,3.084,0,1,1-5.338,3.089,3.084,3.084,0,0,1,5.338-3.089Z" transform="translate(-4423.192 -412.364)" fill="#303e58"/>
          <ellipse id="Ellipse_32" data-name="Ellipse 32" cx="6.5" cy="6" rx="6.5" ry="6" transform="translate(78.644 -0.021)" fill="#fff"/>
          <path id="Path_230" data-name="Path 230" d="M4313.637,294.7a9.333,9.333,0,0,1,.741,3.659c0,4.571-3.113,7.684-7.216,10.182-5.485,3.362-12.752,5.635-16.732,8.922a10.051,10.051,0,0,0-.765.666c-3.188,3.089-5.635,9.069-9.168,13.64-2.669,3.485-5.932,6.13-10.6,6.13-8.179,0-9.885-5.56-9.885-14.828,0-2.348,1.014-7.042,3.287-12.308a48.975,48.975,0,0,1,9.267-14.159,34.415,34.415,0,0,1,13.74-8.9,33.669,33.669,0,0,1,10.775-1.7,22.1,22.1,0,0,1,5.116.69c4.523,1.139,9.588,3.683,11.418,8.008Zm-6.673,4.894a3.707,3.707,0,1,0-3.707,3.707A3.7,3.7,0,0,0,4306.964,299.592Zm-14.828-1.236a2.471,2.471,0,1,0-2.471,2.471A2.479,2.479,0,0,0,4292.137,298.356Zm-9.885,19.77a2.471,2.471,0,1,0-2.471,2.471A2.479,2.479,0,0,0,4282.251,318.127Zm0-13.592a3.707,3.707,0,1,0-3.707,3.707A3.7,3.7,0,0,0,4282.251,304.535Zm-9.885,19.77a3.707,3.707,0,1,0-3.707,3.707A3.7,3.7,0,0,0,4272.366,324.305Z" transform="translate(-4247.653 -281.057)" fill="#65bffc"/>
          <ellipse id="Ellipse_33" data-name="Ellipse 33" cx="4" cy="3.5" rx="4" ry="3.5" transform="translate(51.644 14.979)" fill="#303e58"/>
          <circle id="Ellipse_34" data-name="Ellipse 34" cx="2.5" cy="2.5" r="2.5" transform="translate(51.644 98.979)" fill="#303e58"/>
          <circle id="Ellipse_35" data-name="Ellipse 35" cx="2.5" cy="2.5" r="2.5" transform="translate(39.644 14.979)" fill="#303e58"/>
          <circle id="Ellipse_36" data-name="Ellipse 36" cx="3" cy="3" r="3" transform="translate(36.644 92.979)" fill="#303e58"/>
          <circle id="Ellipse_37" data-name="Ellipse 37" cx="2.5" cy="2.5" r="2.5" transform="translate(29.644 34.979)" fill="#303e58"/>
          <circle id="Ellipse_38" data-name="Ellipse 38" cx="3.5" cy="3.5" r="3.5" transform="translate(27.644 19.979)" fill="#303e58"/>
          <circle id="Ellipse_39" data-name="Ellipse 39" cx="3.5" cy="3.5" r="3.5" transform="translate(17.644 39.979)" fill="#303e58"/>
          <circle id="Ellipse_40" data-name="Ellipse 40" cx="5" cy="5" r="5" transform="translate(-0.356 66.979)" fill="#979faf"/>
        </g>
        <g id="Group_402" data-name="Group 402">
          <path id="Path_231" data-name="Path 231" d="M4201.732,340.555a74.128,74.128,0,1,0-21.723-52.416A73.9,73.9,0,0,0,4201.732,340.555Z" transform="translate(-4180.01 -214)" fill="none" stroke="#00306c" stroke-linecap="round" stroke-linejoin="round" stroke-width="2"/>
          <path id="Path_232" data-name="Path 232" d="M4355.162,284.32l-77.006,77.006-14.309,14.309-13.517,13.517" transform="translate(-4228.607 -262.598)" fill="none" stroke="#00306c" stroke-linecap="round" stroke-linejoin="round" stroke-width="2"/>
          <path id="Path_233" data-name="Path 233" d="M4313.637,294.7a9.333,9.333,0,0,1,.741,3.659c0,4.571-3.113,7.684-7.216,10.182-5.485,3.362-12.752,5.635-16.732,8.922a10.051,10.051,0,0,0-.765.666c-3.188,3.089-5.635,9.069-9.168,13.64-2.669,3.485-5.932,6.13-10.6,6.13-8.179,0-9.885-5.56-9.885-14.828,0-2.348,1.014-7.042,3.287-12.308a48.975,48.975,0,0,1,9.267-14.159,34.415,34.415,0,0,1,13.74-8.9,33.669,33.669,0,0,1,10.775-1.7,22.1,22.1,0,0,1,5.116.69c4.523,1.139,9.588,3.683,11.418,8.008" transform="translate(-4235.297 -263.758)" fill="none" stroke="#00306c" stroke-linecap="round" stroke-linejoin="round" stroke-width="2"/>
          <line id="Line_48" data-name="Line 48" y1="6.251" x2="2.199" transform="translate(66.899 16.681)" fill="none" stroke="#00306c" stroke-linecap="round" stroke-linejoin="round" stroke-width="2"/>
          <line id="Line_49" data-name="Line 49" x1="2.001" y1="5.708" transform="translate(49.006 18.238)" fill="none" stroke="#00306c" stroke-linecap="round" stroke-linejoin="round" stroke-width="2"/>
          <line id="Line_50" data-name="Line 50" x1="3.905" y1="3.806" transform="translate(33.362 29.038)" fill="none" stroke="#00306c" stroke-linecap="round" stroke-linejoin="round" stroke-width="2"/>
          <line id="Line_51" data-name="Line 51" x1="5.758" y1="2.223" transform="translate(22.242 44.78)" fill="none" stroke="#00306c" stroke-linecap="round" stroke-linejoin="round" stroke-width="2"/>
          <line id="Line_52" data-name="Line 52" x1="4.82" y2="1.038" transform="translate(19.968 62.499)" fill="none" stroke="#00306c" stroke-linecap="round" stroke-linejoin="round" stroke-width="2"/>
          <line id="Line_53" data-name="Line 53" y2="5" transform="translate(35 74.277)" fill="none" stroke="#00306c" stroke-linecap="round" stroke-linejoin="round" stroke-width="2"/>
          <line id="Line_54" data-name="Line 54" x2="3.806" y2="3.239" transform="translate(45.2 68.009)" fill="none" stroke="#00306c" stroke-linecap="round" stroke-linejoin="round" stroke-width="2"/>
          <line id="Line_55" data-name="Line 55" x2="3.881" y2="3.656" transform="translate(55.133 53.702)" fill="none" stroke="#00306c" stroke-linecap="round" stroke-linejoin="round" stroke-width="2"/>
          <line id="Line_56" data-name="Line 56" x2="2.891" y2="4.028" transform="translate(71.865 44.78)" fill="none" stroke="#00306c" stroke-linecap="round" stroke-linejoin="round" stroke-width="2"/>
          <path id="Path_234" data-name="Path 234" d="M4433.533,311.063h.024l4.867-1.383" transform="translate(-4355.217 -280.123)" fill="none" stroke="#00306c" stroke-linecap="round" stroke-linejoin="round" stroke-width="2"/>
          <ellipse id="Ellipse_41" data-name="Ellipse 41" cx="6.5" cy="6" rx="6.5" ry="6" transform="translate(91 17.277)" fill="none" stroke="#00306c" stroke-linecap="round" stroke-linejoin="round" stroke-width="2"/>
          <circle id="Ellipse_42" data-name="Ellipse 42" cx="6" cy="6" r="6" transform="translate(99 116.277)" stroke-width="2" stroke="#00306c" stroke-linecap="round" stroke-linejoin="round" fill="none"/>
          <path id="Path_235" data-name="Path 235" d="M4526.608,447.3a17.3,17.3,0,1,0-5.066,12.234A17.206,17.206,0,0,0,4526.608,447.3Z" transform="translate(-4395.629 -363.275)" fill="none" stroke="#00306c" stroke-linecap="round" stroke-linejoin="round" stroke-width="2"/>
          <line id="Line_57" data-name="Line 57" y1="7" transform="translate(114 59.277)" fill="none" stroke="#00306c" stroke-linecap="round" stroke-linejoin="round" stroke-width="2"/>
          <line id="Line_58" data-name="Line 58" y1="7" transform="translate(114 101.277)" fill="none" stroke="#00306c" stroke-linecap="round" stroke-linejoin="round" stroke-width="2"/>
          <line id="Line_59" data-name="Line 59" x1="5.239" y1="5.239" transform="translate(96.207 66.551)" fill="none" stroke="#00306c" stroke-linecap="round" stroke-linejoin="round" stroke-width="2"/>
          <line id="Line_60" data-name="Line 60" x1="5.239" y1="5.239" transform="translate(125.913 96.257)" fill="none" stroke="#00306c" stroke-linecap="round" stroke-linejoin="round" stroke-width="2"/>
          <line id="Line_61" data-name="Line 61" x1="7" transform="translate(89 84.277)" fill="none" stroke="#00306c" stroke-linecap="round" stroke-linejoin="round" stroke-width="2"/>
          <line id="Line_62" data-name="Line 62" x1="7" transform="translate(131 84.277)" fill="none" stroke="#00306c" stroke-linecap="round" stroke-linejoin="round" stroke-width="2"/>
          <line id="Line_63" data-name="Line 63" x1="5.239" y2="5.239" transform="translate(96.207 96.257)" fill="none" stroke="#00306c" stroke-linecap="round" stroke-linejoin="round" stroke-width="2"/>
          <line id="Line_64" data-name="Line 64" x1="5.239" y2="5.239" transform="translate(125.913 66.551)" fill="none" stroke="#00306c" stroke-linecap="round" stroke-linejoin="round" stroke-width="2"/>
          <path id="Path_236" data-name="Path 236" d="M4329.636,548.156c1.655,1.139,3.113,2.2,4.373,3.041a3.987,3.987,0,0,0,.444.27c3.56,2.177,9.366,3.364,14.087,5.044,3.782,1.332,6.847,3.014,7.563,5.807a4.839,4.839,0,0,1,.147,1.236c0,5.239-5.363,9.885-17.3,9.885a42.116,42.116,0,0,1-25.5-9.093" transform="translate(-4272.227 -444.931)" fill="none" stroke="#00306c" stroke-linecap="round" stroke-linejoin="round" stroke-width="2"/>
          <path id="Path_237" data-name="Path 237" d="M4287.123,542.657a16.62,16.62,0,0,1-3.089-8.724,3.677,3.677,0,0,1-.024-.519c0-4.918,3.287-7.414,7.414-7.414a24.5,24.5,0,0,1,10.008,2.348" transform="translate(-4251.883 -429.62)" fill="none" stroke="#00306c" stroke-linecap="round" stroke-linejoin="round" stroke-width="2"/>
          <line id="Line_65" data-name="Line 65" y1="4.226" transform="translate(39.541 92.155)" fill="none" stroke="#00306c" stroke-linecap="round" stroke-linejoin="round" stroke-width="2"/>
          <line id="Line_66" data-name="Line 66" x1="3.632" transform="translate(28.519 104.313)" fill="none" stroke="#00306c" stroke-linecap="round" stroke-linejoin="round" stroke-width="2"/>
          <line id="Line_67" data-name="Line 67" x1="1.113" y2="2.717" transform="translate(45.2 122.899)" fill="none" stroke="#00306c" stroke-linecap="round" stroke-linejoin="round" stroke-width="2"/>
          <line id="Line_68" data-name="Line 68" y2="4.103" transform="translate(60.103 127.914)" fill="none" stroke="#00306c" stroke-linecap="round" stroke-linejoin="round" stroke-width="2"/>
          <line id="Line_69" data-name="Line 69" x2="1.482" y2="3.162" transform="translate(74.831 127.619)" fill="none" stroke="#00306c" stroke-linecap="round" stroke-linejoin="round" stroke-width="2"/>
          <line id="Line_70" data-name="Line 70" y1="0.717" x2="4.052" transform="translate(83.877 116.67)" fill="none" stroke="#00306c" stroke-linecap="round" stroke-linejoin="round" stroke-width="2"/>
          <line id="Line_71" data-name="Line 71" y1="3.461" x2="1.335" transform="translate(76.313 108.119)" fill="none" stroke="#00306c" stroke-linecap="round" stroke-linejoin="round" stroke-width="2"/>
          <line id="Line_72" data-name="Line 72" y1="3.26" x2="2.027" transform="translate(62.226 103.275)" fill="none" stroke="#00306c" stroke-linecap="round" stroke-linejoin="round" stroke-width="2"/>
        </g>
      </g>
    </g>
  </g>
</svg>
