<svg xmlns="http://www.w3.org/2000/svg" width="145.239" height="126.14" viewBox="0 0 145.239 126.14">
  <g id="Group_400" data-name="Group 400" transform="translate(-2259.01 -245)">
    <circle id="Ellipse_26" data-name="Ellipse 26" cx="52.521" cy="52.521" r="52.521" transform="translate(2279.108 246.007)" fill="#bee0ff"/>
    <g id="Group_399" data-name="Group 399" transform="translate(2260.01 246)">
      <g id="Group_398" data-name="Group 398" transform="translate(0 0)">
        <g id="Group_396" data-name="Group 396" transform="translate(0)">
          <path id="Path_208" data-name="Path 208" d="M2299.172,534a7.152,7.152,0,0,1,7.162,7.162,7.022,7.022,0,0,1-2.387,5.325v11.386a4.775,4.775,0,0,1-9.549,0V546.487a7.023,7.023,0,0,1-2.387-5.325A7.152,7.152,0,0,1,2299.172,534Z" transform="translate(-2282.461 -448.057)" fill="#fff"/>
          <path id="Path_209" data-name="Path 209" d="M2343.36,422a5.968,5.968,0,0,1,0,11.937h-45.405a5.968,5.968,0,0,1,0-11.937h45.405Z" transform="translate(-2282.461 -369.479)" fill="#fff"/>
          <path id="Path_210" data-name="Path 210" d="M2579.953,403.7a4.894,4.894,0,0,1-3.63.814,4.937,4.937,0,0,1-3.126-2.007l-18.24-26.02a8.116,8.116,0,0,1-1.431-3.893l-1.863-17.856a8.2,8.2,0,0,1,3.462-7.593l-.023-.023,8.57-5.992,7.33-5.11a8.8,8.8,0,0,1,8.475,3.656L2606.93,378.9a4.579,4.579,0,0,1,.907,2.7,4.872,4.872,0,0,1-2.1,4.035Zm8.785-35.285-5.18-7.47-5.609,3.889-3.894-5.609-7.472,5.18,3.891,5.609-5.609,3.893,5.18,7.47,5.609-3.889,3.894,5.609,7.472-5.18-3.891-5.609Z" transform="translate(-2464.598 -309.093)" fill="#fff"/>
          <path id="Path_211" data-name="Path 211" d="M2532.008,249.485l-3.963,2.77a7.3,7.3,0,0,0-3.007,4.7,7.206,7.206,0,0,0,1.217,5.444l2.77,3.961-11.913,8.356-4.178-5.968a4.862,4.862,0,0,0-4.418-2.052h-.023l-5.919-8.451,14.991-10.479a10.08,10.08,0,0,1,5.73-1.767,9.365,9.365,0,0,1,4.465,1.17Z" transform="translate(-2430.188 -246)" fill="#fff"/>
          <path id="Path_212" data-name="Path 212" d="M2566.058,317.549l-7.33,5.11-8.57,5.992-5.586-7.927,2-1.385,11.913-8.356,2-1.382Z" transform="translate(-2459.655 -290.622)" fill="#65bffc"/>
          <path id="Path_213" data-name="Path 213" d="M2260.01,426.267V326h33.422v28.648H2275.5a5.968,5.968,0,0,0,0,11.937h17.928v59.683Zm23.873-31.035a7.162,7.162,0,0,0-14.324,0,7.022,7.022,0,0,0,2.387,5.325v11.386a4.775,4.775,0,1,0,9.549,0V400.557A7.022,7.022,0,0,0,2283.883,395.232Z" transform="translate(-2260.01 -302.127)" fill="#65bffc"/>
          <path id="Path_214" data-name="Path 214" d="M2483.937,287.039l5.919,8.451a4.775,4.775,0,0,0-2.315.858l-5.968,4.178-5.562-7.947Z" transform="translate(-2411.553 -274.792)" fill="#65bffc"/>
          <path id="Path_215" data-name="Path 215" d="M2614.7,415.721l5.18,7.47-5.609,3.893,3.891,5.609-7.472,5.18-3.893-5.609-5.609,3.889-5.18-7.47,5.609-3.893-3.891-5.609L2605.2,414l3.893,5.609Z" transform="translate(-2495.743 -363.866)" fill="#65bffc"/>
        </g>
        <g id="Group_397" data-name="Group 397">
          <path id="Path_216" data-name="Path 216" d="M2315.883,433.937h-17.928a5.968,5.968,0,0,1,0-11.937h45.405a5.968,5.968,0,0,1,0,11.937Z" transform="translate(-2282.461 -369.479)" fill="none" stroke="#00306c" stroke-linecap="round" stroke-linejoin="round" stroke-width="2"/>
          <path id="Path_217" data-name="Path 217" d="M2293.432,345.243V326H2260.01V426.267h33.422V376.278" transform="translate(-2260.01 -302.127)" fill="none" stroke="#00306c" stroke-linecap="round" stroke-linejoin="round" stroke-width="2"/>
          <path id="Path_218" data-name="Path 218" d="M2294.4,546.487v11.386a4.775,4.775,0,0,0,9.549,0V546.487a7.022,7.022,0,0,0,2.387-5.325,7.162,7.162,0,0,0-14.324,0A7.023,7.023,0,0,0,2294.4,546.487Z" transform="translate(-2282.461 -448.057)" fill="none" stroke="#00306c" stroke-linecap="round" stroke-linejoin="round" stroke-width="2"/>
          <path id="Path_219" data-name="Path 219" d="M2571,336.02a8.8,8.8,0,0,1,8.475,3.656L2606.93,378.9a4.579,4.579,0,0,1,.907,2.7,4.872,4.872,0,0,1-2.1,4.035l-25.783,18.07a4.894,4.894,0,0,1-3.63.814,4.937,4.937,0,0,1-3.126-2.007l-18.24-26.02a8.116,8.116,0,0,1-1.431-3.893l-1.863-17.856a8.2,8.2,0,0,1,3.462-7.593" transform="translate(-2464.598 -309.093)" fill="none" stroke="#00306c" stroke-linecap="round" stroke-linejoin="round" stroke-width="2"/>
          <path id="Path_220" data-name="Path 220" d="M2566.058,317.549,2560.5,309.6l-2,1.382-11.913,8.356-2,1.385,5.586,7.927,8.57-5.992" transform="translate(-2459.655 -290.622)" fill="none" stroke="#00306c" stroke-linecap="round" stroke-linejoin="round" stroke-width="2"/>
          <path id="Path_221" data-name="Path 221" d="M2489.856,266.7a4.775,4.775,0,0,0-2.315.858l-5.968,4.178-5.562-7.947,7.927-5.539,14.991-10.479a10.08,10.08,0,0,1,5.73-1.767,9.366,9.366,0,0,1,4.465,1.17l4.25,2.315-3.963,2.77a7.3,7.3,0,0,0-3.008,4.7,7.206,7.206,0,0,0,1.217,5.444l2.77,3.961" transform="translate(-2411.552 -246)" fill="none" stroke="#00306c" stroke-linecap="round" stroke-linejoin="round" stroke-width="2"/>
          <path id="Path_222" data-name="Path 222" d="M2531.082,323.336l-4.178-5.968a4.862,4.862,0,0,0-4.418-2.052" transform="translate(-2444.159 -294.618)" fill="none" stroke="#00306c" stroke-linecap="round" stroke-linejoin="round" stroke-width="2"/>
          <path id="Path_223" data-name="Path 223" d="M2508.515,295.514v-.023h-.023l-5.919-8.451" transform="translate(-2430.188 -274.792)" fill="none" stroke="#00306c" stroke-linecap="round" stroke-linejoin="round" stroke-width="2"/>
          <path id="Path_224" data-name="Path 224" d="M2513.229,315.438a25.329,25.329,0,0,1-3.937,19.7" transform="translate(-2434.902 -294.717)" fill="none" stroke="#00306c" stroke-linecap="round" stroke-linejoin="round" stroke-width="2"/>
          <path id="Path_225" data-name="Path 225" d="M2609.093,419.609l5.609-3.889,5.18,7.47-5.609,3.893,3.891,5.609-7.472,5.18-3.893-5.609-5.609,3.889-5.18-7.47,5.609-3.893-3.891-5.609L2605.2,414Z" transform="translate(-2495.743 -363.866)" fill="none" stroke="#00306c" stroke-linecap="round" stroke-linejoin="round" stroke-width="2"/>
          <line id="Line_42" data-name="Line 42" x1="1.026" y2="0.597" transform="translate(42.972 32.826)" fill="none" stroke="#00306c" stroke-linecap="round" stroke-linejoin="round" stroke-width="2"/>
          <line id="Line_43" data-name="Line 43" x1="0.907" y2="0.525" transform="translate(51.281 28.146)" fill="none" stroke="#00306c" stroke-linecap="round" stroke-linejoin="round" stroke-width="2"/>
          <line id="Line_44" data-name="Line 44" x1="0.884" y2="0.501" transform="translate(58.799 23.873)" fill="none" stroke="#00306c" stroke-linecap="round" stroke-linejoin="round" stroke-width="2"/>
          <line id="Line_45" data-name="Line 45" x1="0.692" y2="0.979" transform="translate(52.521 44.38)" fill="none" stroke="#00306c" stroke-linecap="round" stroke-linejoin="round" stroke-width="2"/>
          <line id="Line_46" data-name="Line 46" x1="0.762" y2="1.1" transform="translate(58.251 36.262)" fill="none" stroke="#00306c" stroke-linecap="round" stroke-linejoin="round" stroke-width="2"/>
          <line id="Line_47" data-name="Line 47" x1="0.597" y2="0.835" transform="translate(63.861 28.648)" fill="none" stroke="#00306c" stroke-linecap="round" stroke-linejoin="round" stroke-width="2"/>
        </g>
      </g>
    </g>
  </g>
</svg>
