<svg xmlns="http://www.w3.org/2000/svg" width="157.845" height="147.455" viewBox="0 0 157.845 147.455">
  <g id="Group_410" data-name="Group 410" transform="translate(-4179.01 -1828.889)">
    <circle id="Ellipse_43" data-name="Ellipse 43" cx="57.5" cy="57.5" r="57.5" transform="translate(4200.01 1829.343)" fill="#bee0ff"/>
    <g id="Group_409" data-name="Group 409" transform="translate(4180.01 1829.889)">
      <g id="Group_408" data-name="Group 408" transform="translate(0 0)">
        <g id="Group_406" data-name="Group 406">
          <path id="Path_238" data-name="Path 238" d="M4403.179,1968.39v10.39h-10.39v10.39H4382.4v-10.39h-10.39v-10.39h10.39V1958h10.39v10.39Z" transform="translate(-4309.672 -1916.441)" fill="#fff"/>
          <path id="Path_239" data-name="Path 239" d="M4389.153,1885.4c0,16.183-8.183,30.311-28.571,30.311s-28.572-14.129-28.572-30.311c0-18.882,15.635-28.572,28.572-55.4C4373.518,1856.832,4389.153,1866.521,4389.153,1885.4Zm-12.987,6.935v-10.39h-10.39v-10.39h-10.39v10.39H4345v10.39h10.39v10.39h10.39v-10.39Z" transform="translate(-4282.659 -1830)" fill="#65bffc"/>
          <path id="Path_240" data-name="Path 240" d="M4195.361,1997.768a6.172,6.172,0,0,1,2.831-.6c7.843,0,25.974,18.182,25.974,18.182s28.571,14.443,28.571,31.169c0,11.039-2.6,10.078-2.6,20.779h-28.572c0-18.935-18.494-22.624-23.376-28.572-3.013-3.663-14.182-26.623-15.584-31.169-1.145-3.713-2.6-29.325-2.6-38.261a3.706,3.706,0,0,1,.729-2.311,3.174,3.174,0,0,1,2.519-.987c8.338,0,9.74,14.156,9.74,23.481Z" transform="translate(-4180.01 -1921.844)" fill="#fff"/>
          <path id="Path_241" data-name="Path 241" d="M4467.179,2067.3h-28.572c0-10.7-2.6-9.74-2.6-20.779,0-16.726,28.572-31.169,28.572-31.169s18.131-18.182,25.974-18.182a5.663,5.663,0,0,1,3.272.883l1.922-8.571c0-9.324,1.4-23.481,9.741-23.481a3.173,3.173,0,0,1,2.518.987,3.708,3.708,0,0,1,.728,2.311c0,8.936-1.453,34.548-2.6,38.261-1.4,4.545-12.571,27.506-15.584,31.169C4485.673,2044.675,4467.179,2048.364,4467.179,2067.3Z" transform="translate(-4352.893 -1921.844)" fill="#fff"/>
        </g>
        <g id="Group_407" data-name="Group 407">
          <path id="Path_242" data-name="Path 242" d="M4360.582,1830c12.937,26.831,28.571,36.521,28.571,55.4,0,16.183-8.183,30.311-28.571,30.311s-28.572-14.129-28.572-30.311C4332.01,1866.521,4347.645,1856.832,4360.582,1830Z" transform="translate(-4282.659 -1830)" fill="none" stroke="#00306c" stroke-linecap="round" stroke-linejoin="round" stroke-width="2"/>
          <path id="Path_243" data-name="Path 243" d="M4392.789,1978.779v10.39H4382.4v-10.39h-10.39v-10.39h10.39V1958h10.39v10.39h10.39v10.39Z" transform="translate(-4309.672 -1916.441)" fill="none" stroke="#00306c" stroke-linecap="round" stroke-linejoin="round" stroke-width="2"/>
          <path id="Path_244" data-name="Path 244" d="M4253.757,2098.364s-13.091-8.858-15.584-10.39c-1.4-.858-18.182-20.675-18.182-20.675s-.287-3.3,2.363-4.7a6.176,6.176,0,0,1,2.831-.6c7.843,0,25.974,18.182,25.974,18.182s28.572,14.443,28.572,31.169c0,11.039-2.6,10.078-2.6,20.779" transform="translate(-4207.004 -1986.675)" fill="none" stroke="#00306c" stroke-linecap="round" stroke-linejoin="round" stroke-width="2"/>
          <path id="Path_245" data-name="Path 245" d="M4438.607,2132.13c0-10.7-2.6-9.74-2.6-20.779,0-16.726,28.572-31.169,28.572-31.169S4482.713,2062,4490.555,2062a5.663,5.663,0,0,1,3.272.883,5.261,5.261,0,0,1,1.922,4.416s-16.779,19.818-18.182,20.675c-2.493,1.532-15.584,10.39-15.584,10.39" transform="translate(-4352.893 -1986.675)" fill="none" stroke="#00306c" stroke-linecap="round" stroke-linejoin="round" stroke-width="2"/>
          <path id="Path_246" data-name="Path 246" d="M4532.01,2067.3c0-18.935,18.494-22.624,23.377-28.572,3.013-3.663,14.182-26.623,15.585-31.169,1.144-3.713,2.6-29.325,2.6-38.261a3.711,3.711,0,0,0-.728-2.311,3.175,3.175,0,0,0-2.519-.987c-8.337,0-9.74,14.156-9.74,23.481" transform="translate(-4417.724 -1921.844)" fill="none" stroke="#00306c" stroke-linecap="round" stroke-linejoin="round" stroke-width="2"/>
          <path id="Path_247" data-name="Path 247" d="M4221.568,2067.3c0-18.935-18.494-22.624-23.376-28.572-3.013-3.663-14.182-26.623-15.584-31.169-1.145-3.713-2.6-29.325-2.6-38.261a3.706,3.706,0,0,1,.729-2.311,3.174,3.174,0,0,1,2.519-.987c8.338,0,9.74,14.156,9.74,23.481" transform="translate(-4180.01 -1921.844)" fill="none" stroke="#00306c" stroke-linecap="round" stroke-linejoin="round" stroke-width="2"/>
        </g>
      </g>
    </g>
  </g>
</svg>
